<?xml version="1.0" encoding="UTF-8"?>
<svg width="180px" height="61px" viewBox="0 0 180 61" version="1.1" xmlns="http://www.w3.org/2000/svg" xmlns:xlink="http://www.w3.org/1999/xlink">
    <title>A78F45D2-90FD-46E2-959E-487619AC4F5C</title>
    <defs>
        <polygon id="path-1" points="0 57.8823529 178.630308 57.8823529 178.630308 0 0 0"></polygon>
    </defs>
    <g id="Page-1" stroke="none" stroke-width="1" fill="none" fill-rule="evenodd">
        <g id="oncology-nav-scrolling" transform="translate(-110.000000, -70.000000)">
            <g id="logo/OMC" transform="translate(110.000000, 70.500000)">
                <path d="M16.9749392,5.03901924 C16.7169602,4.30916494 16.4428815,3.58774383 16.1638196,2.87398925 L16.1159037,2.89737219 C16.6717276,4.32603132 16.981839,5.87007183 16.981839,7.47812793 C16.981839,11.6310909 14.8938577,15.1001988 12.3566174,18.1997797 C11.9648573,18.6820048 11.5508644,19.1500469 11.1234549,19.6062058 C10.3410848,20.4456916 9.51386552,21.2541279 8.68817951,22.0648642 C7.86594344,22.8775171 7.04754063,23.6986032 6.2816536,24.5607053 C5.51806654,25.4239573 4.81159517,26.3393418 4.20862205,27.3313917 C3.60756556,28.3249748 3.10770736,29.3979067 2.76156323,30.57702 C2.42193564,31.7546001 2.2298889,33.0303118 2.23141309,34.4152717 C2.23141309,35.8025315 2.42691889,37.2909896 2.86161153,38.8982791 C3.36261971,37.901246 3.94297655,36.9398623 4.57469918,36.0175779 C5.21063841,35.0914602 5.89794344,34.2075085 6.62089786,33.3588229 C7.34576891,32.5105206 8.10705602,31.7055342 8.87332637,30.9250808 C9.64113004,30.1450107 10.4204335,29.3921568 11.1870872,28.6580859 C11.9510576,27.920565 12.7046781,27.1949273 13.4168994,26.466223 C14.1302707,25.7409686 14.8060759,25.0068977 15.4228488,24.2567271 C16.1615196,23.3543757 16.8074253,22.4297914 17.3291332,21.4657243 C17.731243,20.5917392 18.0436544,19.6947543 18.2686672,18.7851198 C18.4952134,17.8739519 18.6412609,16.9532008 18.712943,16.0274665 C19.0073381,12.3210792 18.1724522,8.54262657 16.9749392,5.03901924" id="Fill-2" fill="#9487B4"></path>
                <path d="M4.49435388,59.7375744 C3.07451126,44.1273555 24.4622323,39.1460232 19.8477438,22.6123699 C17.4028852,27.0570446 13.5500672,30.8573469 9.95177811,34.5491677 C8.14784199,36.3979531 6.4098381,38.2179889 4.94092965,40.0778908 C3.46742127,41.9393259 2.26760826,43.8387104 1.53967059,45.8492597 C0.805983015,47.8582757 0.548387378,49.9769231 0.971963537,52.2657677 C1.39668968,54.5607455 2.50335427,57.0263037 4.49435388,59.7375744" id="Fill-4" fill="#9487B4"></path>
                <path d="M18.69393,51.3437133 C19.8669102,52.3307799 19.9949413,54.0791336 18.974142,55.2245142 L17.2840539,57.1281153 C16.2644045,58.2723459 14.4666016,58.3996104 13.2959215,57.4106272 L11.3271548,55.7504386 C10.1518747,54.7603054 10.0276768,53.0150183 11.0457929,51.8692544 L12.7381809,49.9671866 C13.7566803,48.820656 15.5517999,48.6930082 16.7263134,49.6800748 L18.69393,51.3437133 Z" id="Fill-6" fill="#9487B4"></path>
                <path d="M34.9733226,32.3928009 C34.9733226,33.9751741 35.8664742,35.3839003 37.4453974,35.3839003 C39.0250873,35.3839003 39.9193889,33.9977904 39.9193889,32.3280187 C39.9193889,30.852977 39.1182358,29.3246529 37.4572806,29.3246529 C35.798242,29.3246529 34.9733226,30.7881948 34.9733226,32.3928009 M40.9723877,32.2831695 C40.9723877,34.8058434 39.357815,36.1589871 37.3894317,36.1589871 C35.3401664,36.1589871 33.9199405,34.6413962 33.9199405,32.4138839 C33.9199405,30.0782735 35.4317815,28.5503327 37.4925466,28.5503327 C39.6096608,28.5503327 40.9723877,30.0901566 40.9723877,32.2831695" id="Fill-8" fill="#3F423F"></path>
                <path d="M42.4107833,36.0386992 L42.4107833,28.6803571 L43.5090147,28.6803571 L45.969973,32.4024608 C46.5319302,33.2649462 46.9896224,34.0415663 47.3449664,34.7955702 L47.3783159,34.7833038 C47.2870841,33.8016037 47.2644678,32.9046189 47.2644678,31.7592383 L47.2644678,28.6803571 L48.2036185,28.6803571 L48.2036185,36.0386992 L47.1947023,36.0386992 L44.7452438,32.3050958 C44.2074362,31.4863096 43.6933949,30.6449072 43.3154347,29.8491207 L43.2805519,29.8590872 C43.338051,30.7890381 43.3484008,31.6726065 43.3484008,32.8950358 L43.3484008,36.0386992 L42.4107833,36.0386992 Z" id="Fill-10" fill="#3F423F"></path>
                <path d="M55.4659755,35.8097764 C55.1106316,35.9838068 54.3669775,36.1589871 53.4297434,36.1589871 C51.2543635,36.1589871 49.6279078,34.8480093 49.6279078,32.4250004 C49.6279078,30.1104729 51.26548,28.5610658 53.6570562,28.5610658 C54.6080901,28.5610658 55.2256296,28.7557959 55.4885918,28.8880436 L55.2367461,29.6631305 C54.870669,29.4887168 54.3332447,29.357619 53.6923222,29.357619 C51.8834029,29.357619 50.6816732,30.4596837 50.6816732,32.3943342 C50.6816732,34.2044036 51.7687882,35.3497842 53.6348232,35.3497842 C54.2527461,35.3497842 54.870669,35.2313362 55.2723955,35.0442727 L55.4659755,35.8097764 Z" id="Fill-12" fill="#3F423F"></path>
                <path d="M57.2238741,32.3928009 C57.2238741,33.9751741 58.1166423,35.3839003 59.6959489,35.3839003 C61.2760221,35.3839003 62.1699403,33.9977904 62.1699403,32.3280187 C62.1699403,30.852977 61.3684039,29.3246529 59.7074487,29.3246529 C58.0484101,29.3246529 57.2238741,30.7881948 57.2238741,32.3928009 M63.2221725,32.2831695 C63.2221725,34.8058434 61.6083665,36.1589871 59.6399832,36.1589871 C57.5907179,36.1589871 56.1704919,34.6413962 56.1704919,32.4138839 C56.1704919,30.0782735 57.6819497,28.5503327 59.7430981,28.5503327 C61.8605956,28.5503327 63.2221725,30.0901566 63.2221725,32.2831695" id="Fill-14" fill="#3F423F"></path>
                <polygon id="Fill-16" fill="#3F423F" points="64.64972 28.6804338 65.6563363 28.6804338 65.6563363 35.2429893 68.9537138 35.2429893 68.9537138 36.0399258 64.64972 36.0399258"></polygon>
                <path d="M70.3554633,32.3928009 C70.3554633,33.9751741 71.2474649,35.3839003 72.8271548,35.3839003 C74.4076114,35.3839003 75.3007629,33.9977904 75.3007629,32.3280187 C75.3007629,30.852977 74.4992265,29.3246529 72.8382713,29.3246529 C71.179616,29.3246529 70.3554633,30.7881948 70.3554633,32.3928009 M76.3529951,32.2831695 C76.3529951,34.8058434 74.7399557,36.1589871 72.7704224,36.1589871 C70.7211571,36.1589871 69.3009312,34.6413962 69.3009312,32.4138839 C69.3009312,30.0782735 70.8135389,28.5503327 72.8739207,28.5503327 C74.9910348,28.5503327 76.3529951,30.0901566 76.3529951,32.2831695" id="Fill-18" fill="#3F423F"></path>
                <path d="M83.6738094,35.7106097 C83.2283836,35.8731403 82.3344654,36.1134862 81.2921998,36.1134862 C80.1253529,36.1134862 79.1635858,35.8309744 78.4080486,35.1436693 C77.7448932,34.5326464 77.3316668,33.549413 77.3316668,32.4024991 C77.3316668,30.2091029 78.9232399,28.6033468 81.5114627,28.6033468 C82.4038476,28.6033468 83.1137689,28.7907936 83.4441966,28.9429744 L83.1927342,29.7172946 C82.7818079,29.5321477 82.2666166,29.4018166 81.4873131,29.4018166 C79.6101616,29.4018166 78.3854323,30.5157644 78.3854323,32.3599498 C78.3854323,34.2267515 79.5538125,35.3303495 81.3615819,35.3303495 C82.0132376,35.3303495 82.4601966,35.2414177 82.6894261,35.1321695 L82.6894261,32.9387734 L81.1338858,32.9387734 L81.1338858,32.1732697 L83.6738094,32.1732697 L83.6738094,35.7106097 Z" id="Fill-20" fill="#3F423F"></path>
                <path d="M87.047009,36.0386992 L87.047009,32.9161187 L84.5975504,28.6803571 L85.7421644,28.6803571 L86.8292793,30.7100728 C87.1163911,31.2681966 87.3571204,31.7155391 87.597083,32.2288137 L87.6200826,32.2288137 C87.8259291,31.7488885 88.1007744,31.2681966 88.3974694,30.7100728 L89.5083506,28.6803571 L90.6311149,28.6803571 L88.0536252,32.9046189 L88.0536252,36.0386992 L87.047009,36.0386992 Z" id="Fill-22" fill="#3F423F"></path>
                <path d="M100.504618,32.8073689 C100.448652,31.7819696 100.378503,30.538074 100.378503,29.6311227 L100.354737,29.6311227 C100.081425,30.4824916 99.7720801,31.4097593 99.3830034,32.4248087 L98.0210431,35.9951149 L97.2658892,35.9951149 L96.0066605,32.4915076 C95.6405834,31.443492 95.3423551,30.5047246 95.1242422,29.6311227 L95.1016259,29.6311227 C95.0793929,30.5476572 95.0211272,31.7704698 94.9532784,32.8832676 L94.7466652,36.0372809 L93.796398,36.0372809 L94.3353555,28.6804721 L95.6057007,28.6804721 L96.922045,32.2388952 C97.2432729,33.1466132 97.4947353,33.9542828 97.6986652,34.7163366 L97.7239648,34.7163366 C97.9290446,33.9753658 98.20504,33.1676961 98.5473508,32.2388952 L99.9215776,28.6804721 L101.192306,28.6804721 L101.672615,36.0372809 L100.688231,36.0372809 L100.504618,32.8073689 Z" id="Fill-24" fill="#3F423F"></path>
                <polygon id="Fill-26" fill="#3F423F" points="107.335617 32.5893326 104.347201 32.5893326 104.347201 35.242721 107.690578 35.242721 107.690578 36.0388908 103.340585 36.0388908 103.340585 28.6801655 107.518081 28.6801655 107.518081 29.478252 104.347201 29.478252 104.347201 31.8027459 107.335617 31.8027459"></polygon>
                <path d="M110.12225,35.2960034 C110.373712,35.3301195 110.740173,35.3385527 111.130783,35.3385527 C113.270513,35.3385527 114.414744,34.2042886 114.414744,32.2186556 C114.427394,30.482185 113.396628,29.3801203 111.29063,29.3801203 C110.775439,29.3801203 110.385212,29.4234362 110.12225,29.4767187 L110.12225,35.2960034 Z M109.12675,28.7901803 C109.731256,28.6916653 110.453061,28.6272664 111.244247,28.6272664 C112.675207,28.6272664 113.694473,28.9546275 114.369128,29.5434175 C115.067549,30.143324 115.468509,30.9946929 115.468509,32.1845395 C115.468509,33.3870358 115.067549,34.3687358 114.358395,35.045691 C113.625474,35.7333794 112.434477,36.1052064 110.934903,36.1052064 C110.212332,36.1052064 109.630058,36.0714736 109.12675,36.0174245 L109.12675,28.7901803 Z" id="Fill-28" fill="#3F423F"></path>
                <mask id="mask-2" fill="white">
                    <use xlink:href="#path-1"></use>
                </mask>
                <g id="Clip-31"></g>
                <polygon id="Fill-30" fill="#3F423F" mask="url(#mask-2)" points="116.882487 36.0386225 117.88987 36.0386225 117.88987 28.6802805 116.882487 28.6802805"></polygon>
                <path d="M125.149467,35.8097764 C124.794506,35.9838068 124.050852,36.1589871 123.111701,36.1589871 C120.937472,36.1589871 119.311016,34.8480093 119.311016,32.4250004 C119.311016,30.1104729 120.948971,28.5610658 123.340548,28.5610658 C124.290815,28.5610658 124.909504,28.7557959 125.172467,28.8880436 L124.920621,29.6631305 C124.55416,29.4887168 124.016736,29.357619 123.37543,29.357619 C121.567278,29.357619 120.365165,30.4596837 120.365165,32.3943342 C120.365165,34.2044036 121.45228,35.3497842 123.317931,35.3497842 C123.936237,35.3497842 124.55416,35.2313362 124.955504,35.0442727 L125.149467,35.8097764 Z" id="Fill-32" fill="#3F423F" mask="url(#mask-2)"></path>
                <path d="M130.386517,32.9825876 L129.619863,30.8654735 C129.448132,30.3843983 129.335051,29.946639 129.220053,29.5207629 L129.196287,29.5207629 C129.081289,29.946639 128.969741,30.4058646 128.806827,30.8535903 L128.052056,32.9825876 L130.386517,32.9825876 Z M127.845443,33.7231751 L127.044673,36.0373192 L126.013907,36.0373192 L128.646979,28.6816605 L129.837976,28.6816605 L132.468748,36.0373192 L131.405016,36.0373192 L130.582397,33.7231751 L127.845443,33.7231751 Z" id="Fill-33" fill="#3F423F" mask="url(#mask-2)"></path>
                <polygon id="Fill-34" fill="#3F423F" mask="url(#mask-2)" points="133.735758 28.6804338 134.742758 28.6804338 134.742758 35.2429893 138.039752 35.2429893 138.039752 36.0399258 133.735758 36.0399258"></polygon>
                <path d="M147.011095,35.8097764 C146.656134,35.9838068 145.912097,36.1589871 144.974479,36.1589871 C142.7991,36.1589871 141.173411,34.8480093 141.173411,32.4250004 C141.173411,30.1104729 142.810983,28.5610658 145.202176,28.5610658 C146.152826,28.5610658 146.770366,28.7557959 147.033711,28.8880436 L146.781866,29.6631305 C146.415405,29.4887168 145.878364,29.357619 145.237825,29.357619 C143.428522,29.357619 142.226793,30.4596837 142.226793,32.3943342 C142.226793,34.2044036 143.313908,35.3497842 145.179943,35.3497842 C145.797866,35.3497842 146.415405,35.2313362 146.817515,35.0442727 L147.011095,35.8097764 Z" id="Fill-35" fill="#3F423F" mask="url(#mask-2)"></path>
                <polygon id="Fill-36" fill="#3F423F" mask="url(#mask-2)" points="152.397144 32.5893326 149.409878 32.5893326 149.409878 35.242721 152.752488 35.242721 152.752488 36.0388908 148.401345 36.0388908 148.401345 28.6801655 152.579607 28.6801655 152.579607 29.478252 149.409878 29.478252 149.409878 31.8027459 152.397144 31.8027459"></polygon>
                <path d="M154.187625,36.0386992 L154.187625,28.6803571 L155.286623,28.6803571 L157.747581,32.4024608 C158.308772,33.2649462 158.766848,34.0415663 159.121808,34.7955702 L159.156691,34.7833038 C159.064309,33.8016037 159.04131,32.9046189 159.04131,31.7592383 L159.04131,28.6803571 L159.980844,28.6803571 L159.980844,36.0386992 L158.972311,36.0386992 L156.522852,32.3050958 C155.984661,31.4863096 155.47062,30.6449072 155.09266,29.8491207 L155.057394,29.8590872 C155.115276,30.7890381 155.126776,31.6726065 155.126776,32.8950358 L155.126776,36.0386992 L154.187625,36.0386992 Z" id="Fill-37" fill="#3F423F" mask="url(#mask-2)"></path>
                <polygon id="Fill-38" fill="#3F423F" mask="url(#mask-2)" points="163.329817 29.4888318 160.983473 29.4888318 160.983473 28.6803955 166.696193 28.6803955 166.696193 29.4888318 164.3372 29.4888318 164.3372 36.0372042 163.329817 36.0372042"></polygon>
                <polygon id="Fill-39" fill="#3F423F" mask="url(#mask-2)" points="171.679902 32.5893326 168.691486 32.5893326 168.691486 35.242721 172.034863 35.242721 172.034863 36.0388908 167.68487 36.0388908 167.68487 28.6801655 171.863132 28.6801655 171.863132 29.478252 168.691486 29.478252 168.691486 31.8027459 171.679902 31.8027459"></polygon>
                <path d="M174.466497,32.1307587 L175.486529,32.1307587 C176.548728,32.1307587 177.225683,31.5737848 177.225683,30.7327657 C177.225683,29.7824985 176.504645,29.3677388 175.450497,29.3677388 C174.970188,29.3677388 174.63861,29.4018549 174.466497,29.4451709 L174.466497,32.1307587 Z M173.470997,28.7785655 C173.974305,28.6919336 174.706843,28.6271514 175.383031,28.6271514 C176.44638,28.6271514 177.144801,28.8222647 177.61476,29.2262912 C177.99272,29.5536524 178.221566,30.0561938 178.221566,30.6334841 C178.221566,31.5967844 177.581027,32.2411568 176.778724,32.5014358 L176.778724,32.5344019 C177.363298,32.7302819 177.717875,33.2539063 177.900338,34.0186434 C178.152184,35.045576 178.335798,35.7547307 178.496028,36.0387758 L177.466412,36.0387758 C177.340298,35.8191296 177.168184,35.1973734 176.963104,34.280839 C176.732342,33.2646395 176.307999,32.8847626 175.403731,32.8521798 L174.466497,32.8521798 L174.466497,36.0387758 L173.470997,36.0387758 L173.470997,28.7785655 Z" id="Fill-40" fill="#3F423F" mask="url(#mask-2)"></path>
                <path d="M37.3226178,48.0789186 L38.1065212,48.0789186 L38.1065212,47.2248664 L37.3226178,47.2248664 L37.3226178,48.0789186 Z M35.874409,48.0789186 L36.6598457,48.0789186 L36.6598457,47.2248664 L35.874409,47.2248664 L35.874409,48.0789186 Z M37.8194094,51.1152505 L37.8194094,49.3350806 L36.4164332,49.3350806 C35.543598,49.3350806 34.9463748,50.1515668 34.9463748,51.204949 C34.9463748,52.2311149 35.5324815,53.0859338 36.3934336,53.0859338 C37.3226178,53.0859338 37.7979431,52.4327448 37.8194094,51.1152505 L37.8194094,51.1152505 Z M40.4490316,54.332896 L39.9407402,54.332896 C38.847492,54.332896 38.1517538,53.841471 37.8301426,52.8651375 C37.4993315,53.3772622 36.9354577,53.6386911 36.1400545,53.6386911 C35.0130736,53.6386911 34.1728212,52.5853089 34.1728212,51.2455816 C34.1728212,49.8180725 35.0130736,48.8126062 36.2723023,48.8126062 L38.6155793,48.8126062 L38.6155793,52.0421348 C38.6155793,53.0464511 39.1349871,53.6386911 40.0300553,53.6386911 L40.4490316,53.6386911 L40.4490316,54.332896 Z" id="Fill-41" fill="#3F423F" mask="url(#mask-2)"></path>
                <path d="M43.1512175,47.3296296 C43.1631006,47.4197114 43.1742171,47.4795104 43.1742171,47.5301095 C43.1742171,47.7110398 43.0197363,47.8628372 42.7218914,47.8628372 C42.5106783,47.8628372 42.3446978,47.7110398 42.2009502,47.4116616 C42.2009502,47.8417543 42.0468528,48.0732837 41.704542,48.0732837 C41.4726292,48.0732837 41.3626144,47.955219 41.3066487,47.7110398 L41.128785,46.9474527 L41.3626144,46.8964703 L41.5048287,47.5807087 C41.5485279,47.7313561 41.6263433,47.8118548 41.7355914,47.8118548 C41.9249549,47.8118548 42.0579693,47.601025 42.0579693,47.4197114 C42.0579693,47.3794621 42.0579693,47.3388295 42.0468528,47.2901469 L41.9364547,46.7768723 L42.1798672,46.7258898 L42.289882,47.230348 C42.3446978,47.4795104 42.4777122,47.6098415 42.6762755,47.6098415 C42.8426393,47.6098415 42.9078049,47.5105599 42.9078049,47.3794621 C42.9078049,47.3495626 42.9078049,47.3196631 42.8986051,47.2901469 L42.7537075,46.6055252 L42.9860036,46.5545427 L43.1512175,47.3296296 Z" id="Fill-42" fill="#3F423F" mask="url(#mask-2)"></path>
                <path d="M42.0636042,55.8719533 L42.8467409,55.8719533 L42.8467409,55.0148344 L42.0636042,55.0148344 L42.0636042,55.8719533 Z M40.6157787,55.8719533 L41.4004488,55.8719533 L41.4004488,55.0148344 L40.6157787,55.0148344 L40.6157787,55.8719533 Z M44.0638037,54.332896 L40.2508516,54.332896 L40.2508516,53.6386911 L40.9580896,53.6386911 C41.4326482,53.6386911 41.7427596,53.4991601 41.8983903,53.2269981 C42.0084051,53.0364846 42.0636042,52.7125734 42.0636042,52.2510479 L42.0636042,49.76824 L42.8371578,49.76824 L42.8371578,52.5646093 C42.8371578,52.995852 42.7708422,53.3573292 42.626328,53.6291079 L44.0638037,53.6291079 L44.0638037,54.332896 Z" id="Fill-43" fill="#3F423F" mask="url(#mask-2)"></path>
                <path d="M45.6760764,49.0433689 L46.4607464,49.0433689 L46.4607464,48.1893167 L45.6760764,48.1893167 L45.6760764,49.0433689 Z M46.4607464,49.76824 L46.4607464,52.5646093 C46.4607464,53.739506 45.9191056,54.332896 44.8362072,54.332896 L43.8740569,54.332896 L43.8740569,53.6386911 L44.5812949,53.6386911 C45.0566202,53.6386911 45.3667316,53.4991601 45.521979,53.2181815 C45.6319938,53.0364846 45.6875762,52.7125734 45.6875762,52.2510479 L45.6875762,49.76824 L46.4607464,49.76824 Z" id="Fill-44" fill="#3F423F" mask="url(#mask-2)"></path>
                <path d="M50.3734018,54.3328193 L49.5005666,54.3328193 C49.1015233,54.3328193 48.7703289,54.2036382 48.4947169,53.9514091 C48.1738724,53.6700472 48.0193917,53.2671707 48.0193917,52.7351131 L48.0193917,47.8273795 L48.8147949,47.8273795 L48.8147949,52.3103869 C48.8147949,52.7753624 48.8918436,53.1057901 49.0348245,53.30742 C49.1563391,53.4787671 49.3675522,53.5780488 49.6657804,53.6190647 C49.7409125,53.6290312 49.8313776,53.6290312 50.3734018,53.6290312 L50.3734018,54.3328193 Z" id="Fill-45" fill="#3F423F" mask="url(#mask-2)"></path>
                <path d="M58.0077392,53.6388061 C58.0292055,53.4199265 58.0403219,53.2075634 58.0403219,53.0070834 C58.0403219,51.4170437 57.3116176,50.4012276 56.1175545,50.4012276 C54.7149616,50.4012276 53.0574563,51.949868 52.5384318,53.6388061 L58.0077392,53.6388061 Z M58.7701762,54.333011 L49.8524606,54.333011 L49.8524606,53.6388061 L51.8963593,53.6388061 L51.8963593,47.8371543 L52.7036457,47.8371543 L52.5273153,52.5145085 C53.2782526,50.8539366 54.747161,49.7568552 56.1842534,49.7568552 C57.9521568,49.7568552 58.8364918,50.904919 58.8364918,53.1669307 C58.8364918,53.5192081 58.8142588,53.9094348 58.7701762,54.333011 L58.7701762,54.333011 Z" id="Fill-46" fill="#3F423F" mask="url(#mask-2)"></path>
                <path d="M63.8108092,54.3328193 L61.9095081,54.3328193 C61.7009783,55.3689518 60.9469744,55.9113593 59.6666627,55.9830414 L59.6666627,55.3091528 C60.6951286,55.3091528 61.2137698,54.7943448 61.2137698,53.6090982 L61.2137698,49.7681633 L61.9880901,49.7681633 L61.9880901,53.6290312 L63.8108092,53.6290312 L63.8108092,54.3328193 Z" id="Fill-47" fill="#3F423F" mask="url(#mask-2)"></path>
                <path d="M73.9970683,54.3328193 L63.5011961,54.3328193 L63.5011961,53.6290312 L64.5277454,53.6290312 C65.2353667,53.6290312 65.6892257,53.1974052 65.6892257,52.342203 L65.6892257,49.7681633 L66.4727458,49.7681633 L66.4727458,52.562616 C66.4727458,52.9750757 66.4060469,53.3181532 66.284149,53.5891653 L66.284149,53.6290312 L67.7327411,53.6290312 C68.4399791,53.6290312 68.6715085,53.3181532 68.6715085,52.2509713 L68.6715085,49.7681633 L69.4454454,49.7681633 L69.4454454,52.562616 C69.4454454,52.9957753 69.3791299,53.3572525 69.2342323,53.6290312 L70.5616932,53.6290312 C71.3900625,53.6290312 71.6660578,53.3181532 71.6660578,52.2509713 L71.6660578,49.7681633 L72.4396114,49.7681633 L72.4396114,52.562616 C72.4396114,52.9957753 72.361796,53.3572525 72.2172818,53.6290312 L73.9970683,53.6290312 L73.9970683,54.3328193 Z" id="Fill-48" fill="#3F423F" mask="url(#mask-2)"></path>
                <path d="M76.3741164,47.8274945 L76.3741164,52.5654143 C76.3741164,53.7406944 75.8324756,54.3329343 74.7495772,54.3329343 L73.7874269,54.3329343 L73.7874269,53.6398794 L74.4950482,53.6398794 C74.9699902,53.6398794 75.2797183,53.4991984 75.4368823,53.2182199 C75.5453638,53.0376729 75.6005628,52.7141451 75.6005628,52.2510862 L75.6005628,47.8274945 L76.3741164,47.8274945 Z" id="Fill-49" fill="#3F423F" mask="url(#mask-2)"></path>
                <polygon id="Fill-50" fill="#3F423F" mask="url(#mask-2)" points="77.8548313 54.332896 78.6280016 54.332896 78.6280016 47.8274562 77.8548313 47.8274562"></polygon>
                <path d="M90.606582,49.0433689 L91.3920187,49.0433689 L91.3920187,48.1893167 L90.606582,48.1893167 L90.606582,49.0433689 Z M93.0384075,53.6386911 C93.0610238,53.4182781 93.0706069,53.2074484 93.0706069,53.0069684 C93.0706069,51.4479782 92.3637522,50.4011126 91.1489895,50.4011126 C89.9223436,50.4011126 88.4419353,51.5982423 87.7454305,53.1464994 C87.7231975,53.3178465 87.6906147,53.4907269 87.6457655,53.6386911 L93.0384075,53.6386911 Z M93.8004612,54.332896 L87.3797367,54.332896 C86.751464,55.4280608 85.8445127,56.0019011 84.6742158,56.0019011 C82.9170456,56.0019011 81.5462688,54.5766919 81.5462688,52.5442929 L81.5462688,49.76824 L82.3202057,49.76824 L82.3202057,52.404762 C82.3202057,54.1611656 83.2263903,55.3191959 84.6742158,55.3191959 C86.1546241,55.3191959 87.0174928,54.1611656 87.0174928,52.404762 L87.0174928,49.76824 L87.7898964,49.76824 L87.7898964,52.030635 C88.5960327,50.6234422 89.9553097,49.7567402 91.2038052,49.7567402 C92.9720919,49.7567402 93.8560436,50.9048041 93.8560436,53.1668157 C93.8560436,53.5190931 93.8345773,53.9116198 93.8004612,54.332896 L93.8004612,54.332896 Z" id="Fill-51" fill="#3F423F" mask="url(#mask-2)"></path>
                <polygon id="Fill-52" fill="#3F423F" mask="url(#mask-2)" points="95.3153689 54.332896 96.0889225 54.332896 96.0889225 47.8274562 95.3153689 47.8274562"></polygon>
                <path d="M101.183681,54.3328193 L99.2831467,54.3328193 C99.0734669,55.3689518 98.319463,55.9113593 97.0395347,55.9830414 L97.0395347,55.3091528 C98.067234,55.3091528 98.5870252,54.7943448 98.5870252,53.6090982 L98.5870252,49.7681633 L99.3601954,49.7681633 L99.3601954,53.6290312 L101.183681,53.6290312 L101.183681,54.3328193 Z" id="Fill-53" fill="#3F423F" mask="url(#mask-2)"></path>
                <path d="M106.288215,52.8556693 C106.288215,52.4044937 106.1874,52.0422498 106.00072,51.7689377 C105.75769,51.43736 105.40388,51.2775127 104.940054,51.2775127 C104.430613,51.2775127 104.056103,51.4580597 103.801574,51.8095704 C103.590744,52.1020488 103.480346,52.483459 103.480346,52.9752673 C103.480346,53.4279763 103.590744,53.7986534 103.801574,54.0811653 C104.056103,54.4135096 104.419113,54.5741236 104.894438,54.5741236 C105.823623,54.5741236 106.288215,54.0010499 106.288215,52.8556693 M107.183283,52.9262015 C107.183283,53.5797737 106.98242,54.1122147 106.586443,54.5342576 C106.166317,54.9869666 105.601676,55.2092961 104.894438,55.2092961 C104.044603,55.2092961 103.404064,54.9160511 102.983937,54.333011 L100.850723,54.333011 L100.850723,53.6292229 L102.662326,53.6292229 C102.595627,53.4183931 102.563811,53.1880137 102.563811,52.9357847 C102.563811,52.2737792 102.773108,51.7306051 103.193617,51.2966791 C103.61336,50.8642864 104.187584,50.6530733 104.905938,50.6530733 C105.624676,50.6530733 106.196983,50.8734862 106.607526,51.3066456 C106.995069,51.7198719 107.183283,52.2611294 107.183283,52.9262015" id="Fill-54" fill="#3F423F" mask="url(#mask-2)"></path>
                <path d="M114.884242,54.3328193 L108.388769,54.3328193 L108.388769,53.6397644 L110.188872,53.6397644 L108.76098,48.6020831 L109.591265,48.6020831 L110.993475,53.6397644 L111.315853,53.6397644 C112.122373,53.6397644 112.420218,53.3373195 112.420218,52.2509713 L112.420218,47.8273795 L113.205654,47.8273795 L113.205654,52.562616 C113.205654,52.9957753 113.127456,53.3572525 112.973358,53.6290312 L114.884242,53.6290312 L114.884242,54.3328193 Z M110.13329,46.8740457 L109.680964,46.9127617 C109.635731,46.6819989 109.503867,46.5604843 109.271954,46.5604843 C108.973726,46.5604843 108.817712,46.7410312 108.817712,47.1028918 C108.817712,47.2443394 108.852595,47.3639374 108.928493,47.4651356 L110.110673,47.4651356 L110.110673,47.8683955 L108.000459,47.8683955 L108.000459,47.4651356 L108.443202,47.4651356 C108.388769,47.3551208 108.365386,47.2359062 108.365386,47.1151582 C108.365386,46.6007336 108.652881,46.2292899 109.271954,46.2292899 C109.746896,46.2292899 110.034391,46.4397363 110.13329,46.8740457 L110.13329,46.8740457 Z" id="Fill-55" fill="#3F423F" mask="url(#mask-2)"></path>
                <path d="M117.173739,47.8274945 L117.173739,52.5654143 C117.173739,53.7406944 116.632481,54.3329343 115.5492,54.3329343 L114.588582,54.3329343 L114.588582,53.6398794 L115.29582,53.6398794 C115.769612,53.6398794 116.079724,53.4991984 116.235355,53.2182199 C116.345369,53.0376729 116.400568,52.7141451 116.400568,52.2510862 L116.400568,47.8274945 L117.173739,47.8274945 Z" id="Fill-56" fill="#3F423F" mask="url(#mask-2)"></path>
                <path d="M123.9679,57.580441 L124.753337,57.580441 L124.753337,56.7263888 L123.9679,56.7263888 L123.9679,57.580441 Z M122.521225,57.580441 L123.305511,57.580441 L123.305511,56.7263888 L122.521225,56.7263888 L122.521225,57.580441 Z M129.283877,54.332896 L129.11828,54.332896 C128.101314,54.332896 127.316644,53.8100382 127.063648,52.9475528 C127.063648,54.6253744 125.427226,55.9628017 123.548541,55.9628017 C121.516142,55.9628017 119.968651,54.3953783 119.968651,52.3829123 L119.968651,51.377446 L120.754088,51.377446 L120.754088,52.2510479 C120.754088,54.0622672 121.82472,55.2590136 123.582273,55.2590136 C125.063448,55.2590136 126.35641,54.1327994 126.35641,52.9260865 C126.35641,52.0214351 125.825885,51.5583763 124.918934,51.5583763 L124.918934,50.9243537 L124.908201,50.9243537 C124.908201,50.9151539 125.107531,50.9048041 125.504658,50.9048041 C126.180463,50.9048041 127.106964,51.5384433 127.448125,52.3418964 C127.857901,53.3094133 128.223212,53.6291079 129.051581,53.6291079 L129.283877,53.6291079 L129.283877,54.332896 Z" id="Fill-57" fill="#3F423F" mask="url(#mask-2)"></path>
                <path d="M131.975253,47.3296296 C131.986753,47.4197114 131.997869,47.4795104 131.997869,47.5301095 C131.997869,47.7110398 131.843772,47.8628372 131.54516,47.8628372 C131.334331,47.8628372 131.168733,47.7110398 131.024986,47.4116616 C131.024986,47.8417543 130.870505,48.0732837 130.528194,48.0732837 C130.296665,48.0732837 130.186267,47.955219 130.130684,47.7110398 L129.952821,46.9474527 L130.186267,46.8964703 L130.328864,47.5807087 C130.372563,47.7313561 130.450762,47.8118548 130.559627,47.8118548 C130.748607,47.8118548 130.881622,47.601025 130.881622,47.4197114 C130.881622,47.3794621 130.881622,47.3388295 130.870505,47.2901469 L130.76049,46.7768723 L131.003903,46.7258898 L131.113918,47.230348 C131.168733,47.4795104 131.301748,47.6098415 131.500311,47.6098415 C131.667058,47.6098415 131.73184,47.5105599 131.73184,47.3794621 C131.73184,47.3495626 131.73184,47.3196631 131.721874,47.2901469 L131.577743,46.6055252 L131.810039,46.5545427 L131.975253,47.3296296 Z" id="Fill-58" fill="#3F423F" mask="url(#mask-2)"></path>
                <path d="M130.876217,55.8619868 L131.661653,55.8619868 L131.661653,55.0067846 L130.876217,55.0067846 L130.876217,55.8619868 Z M132.887916,54.332896 L129.07458,54.332896 L129.07458,53.6386911 L129.781052,53.6386911 C130.257144,53.6386911 130.566489,53.4991601 130.722503,53.2269981 C130.832901,53.0364846 130.887333,52.7125734 130.887333,52.2510479 L130.887333,49.76824 L131.661653,49.76824 L131.661653,52.5646093 C131.661653,52.995852 131.594954,53.3573292 131.45044,53.6291079 L132.887916,53.6291079 L132.887916,54.332896 Z" id="Fill-59" fill="#3F423F" mask="url(#mask-2)"></path>
                <path d="M140.499752,53.6388061 C140.522368,53.4199265 140.533101,53.2075634 140.533101,53.0070834 C140.533101,51.4480932 139.826247,50.4012276 138.609567,50.4012276 C137.206591,50.4012276 135.549086,51.949868 135.029678,53.6388061 L140.499752,53.6388061 Z M142.820413,54.333011 L132.344857,54.333011 L132.344857,53.6388061 L134.377639,53.6388061 L134.377639,47.8371543 L135.195658,47.8371543 L135.018945,52.5145085 C135.769882,50.8424368 137.262173,49.7568552 138.665533,49.7568552 C140.443786,49.7568552 141.328505,50.904919 141.328505,53.1669307 C141.328505,53.3179615 141.328505,53.4693756 141.317005,53.6292229 L142.820413,53.6292229 L142.820413,54.333011 Z" id="Fill-60" fill="#3F423F" mask="url(#mask-2)"></path>
                <path d="M145.26439,47.8274945 L145.26439,52.5654143 C145.26439,53.7406944 144.722749,54.3329343 143.639084,54.3329343 L142.678083,54.3329343 L142.678083,53.6398794 L143.384938,53.6398794 C143.860263,53.6398794 144.170375,53.4991984 144.326772,53.2182199 C144.43602,53.0376729 144.490453,52.7141451 144.490453,52.2510862 L144.490453,47.8274945 L145.26439,47.8274945 Z" id="Fill-61" fill="#3F423F" mask="url(#mask-2)"></path>
                <polygon id="Fill-62" fill="#3F423F" mask="url(#mask-2)" points="146.745564 54.332896 147.519118 54.332896 147.519118 47.8274562 146.745564 47.8274562"></polygon>
                <path d="M151.982576,49.0433689 L152.766479,49.0433689 L152.766479,48.1893167 L151.982576,48.1893167 L151.982576,49.0433689 Z M154.579615,54.332896 L152.766479,54.332896 C152.467868,55.3690284 151.71693,55.9114359 150.435085,55.983118 L150.435085,55.3092295 C151.463168,55.3092295 151.982576,54.7967215 151.982576,53.6091749 L151.982576,49.76824 L152.756129,49.76824 L152.756129,53.6291079 L154.579615,53.6291079 L154.579615,54.332896 Z" id="Fill-63" fill="#3F423F" mask="url(#mask-2)"></path>
                <path d="M161.684923,53.3179998 L161.684923,54.332666 L154.027969,54.332666 L154.027969,53.6292612 L160.746156,53.6292612 C160.755739,53.5088966 160.766855,53.388532 160.766855,53.2670174 C160.766855,52.4953804 160.567525,51.8694077 160.160432,51.4090322 C159.685107,50.8654747 158.977869,50.5921627 158.037185,50.5921627 L155.76214,50.5921627 C156.1608,49.9389737 156.723524,49.0243559 157.452995,47.8371927 L158.369529,47.8371927 L157.054335,49.9006411 L158.037185,49.9006411 C159.154583,49.9006411 160.050034,50.2088358 160.71204,50.8443917 C161.363695,51.4680645 161.684923,52.2922172 161.684923,53.3179998" id="Fill-64" fill="#3F423F" mask="url(#mask-2)"></path>
                <path d="M166.657707,54.3328193 L164.757173,54.3328193 C164.54596,55.3689518 163.793489,55.9113593 162.513561,55.9830414 L162.513561,55.3091528 C163.542027,55.3091528 164.061435,54.7943448 164.061435,53.6090982 L164.061435,49.7681633 L164.834605,49.7681633 L164.834605,53.6290312 L166.657707,53.6290312 L166.657707,54.3328193 Z" id="Fill-65" fill="#3F423F" mask="url(#mask-2)"></path>
                <path d="M171.319383,52.8556693 C171.319383,52.4044937 171.220485,52.0422498 171.021155,51.7689377 C170.788859,51.43736 170.447315,51.2775127 169.971606,51.2775127 C169.475198,51.2775127 169.088038,51.4580597 168.833125,51.8095704 C168.623829,52.1020488 168.524931,52.483459 168.524931,52.9752673 C168.524931,53.4279763 168.623829,53.7986534 168.833125,54.0811653 C169.088038,54.4135096 169.452198,54.5741236 169.927907,54.5741236 C170.855558,54.5741236 171.319383,54.0010499 171.319383,52.8556693 L171.319383,52.8556693 Z M173.47483,54.333011 L171.783209,54.333011 C171.363083,54.9160511 170.74516,55.2092961 169.927907,55.2092961 C169.076155,55.2092961 168.435999,54.9160511 168.026606,54.333011 L166.3921,54.333011 L166.3921,53.6292229 L167.695795,53.6292229 C167.640596,53.4183931 167.606479,53.1880137 167.606479,52.9357847 C167.606479,52.2737792 167.817693,51.7306051 168.226319,51.2966791 C168.646445,50.8642864 169.220285,50.6530733 169.93864,50.6530733 C170.656228,50.6530733 171.230451,50.8734862 171.640611,51.3066456 C172.026621,51.7198719 172.225951,52.2611294 172.225951,52.9262015 C172.225951,53.1765139 172.192218,53.4080433 172.127053,53.6292229 L173.47483,53.6292229 L173.47483,54.333011 Z" id="Fill-66" fill="#3F423F" mask="url(#mask-2)"></path>
                <path d="M175.829837,47.8274945 L175.829837,52.5654143 C175.829837,53.7406944 175.288196,54.3329343 174.204531,54.3329343 L173.243914,54.3329343 L173.243914,53.6398794 L173.951919,53.6398794 C174.424944,53.6398794 174.735055,53.4991984 174.890686,53.2182199 C175.000701,53.0376729 175.056283,52.7141451 175.056283,52.2510862 L175.056283,47.8274945 L175.829837,47.8274945 Z" id="Fill-67" fill="#3F423F" mask="url(#mask-2)"></path>
                <polygon id="Fill-68" fill="#3F423F" mask="url(#mask-2)" points="177.31013 54.332896 178.084834 54.332896 178.084834 47.8274562 177.31013 47.8274562"></polygon>
            </g>
        </g>
    </g>
</svg>