<?xml version="1.0" encoding="UTF-8"?>
<svg width="254px" height="85px" viewBox="0 0 254 85" version="1.1" xmlns="http://www.w3.org/2000/svg" xmlns:xlink="http://www.w3.org/1999/xlink">
    <title>ACD8D3D7-0F66-4697-8955-A1253D05B37D</title>
    <defs>
        <polygon id="path-1" points="0 82 253.059603 82 253.059603 0 0 0"></polygon>
    </defs>
    <g id="Page-1" stroke="none" stroke-width="1" fill="none" fill-rule="evenodd">
        <g id="AWZMC-Home" transform="translate(-394.000000, -1155.000000)">
            <g id="logo/OMC" transform="translate(394.000000, 1155.000000)">
                <path d="M24.0478305,7.1386106 C23.6823603,6.10465033 23.2940821,5.08263709 22.8987444,4.07148477 L22.8308636,4.1046106 C23.6182808,6.12854437 24.0576053,8.3159351 24.0576053,10.5940146 C24.0576053,16.4773788 21.0996318,21.3919483 17.5052079,25.7830212 C16.9502146,26.4661735 16.3637245,27.1292331 15.7582278,27.7754583 C14.6498702,28.9647298 13.4779762,30.1100146 12.3082543,31.2585576 C11.1434199,32.4098159 9.98401589,33.5730212 8.89900927,34.7943325 C7.81726093,36.0172728 6.81642649,37.3140675 5.96221457,38.7194715 C5.11071788,40.1270477 4.40258543,41.6470344 3.91221457,43.317445 C3.4310755,44.9856834 3.15900927,46.7929417 3.16116855,48.7549682 C3.16116855,50.720253 3.4381351,52.828902 4.05394967,55.1058954 C4.76371126,53.6934318 5.58588344,52.3314715 6.48082384,51.024902 C7.38173775,49.712902 8.35541987,48.4606371 9.3796053,47.2583325 C10.406506,46.0565709 11.484996,44.9161735 12.5705457,43.8105311 C13.6582675,42.7054318 14.7622808,41.6388887 15.8483735,40.598955 C16.9306649,39.5541338 17.998294,38.526147 19.0072742,37.4938159 C20.0178834,36.4663722 20.9752742,35.4264384 21.8490358,34.3636967 C22.8954861,33.0853656 23.8105192,31.7755377 24.5496053,30.4097762 C25.1192609,29.1716305 25.5618437,27.900902 25.8806119,26.612253 C26.2015523,25.3214318 26.408453,24.0170344 26.5100026,22.7055775 C26.9270623,17.4548623 25.7443073,12.1020543 24.0478305,7.1386106" id="Fill-2" fill="#9487B4"></path>
                <path d="M6.36700132,84.6282305 C4.35555762,62.5137536 34.6548291,55.4568662 28.1176371,32.0341907 C24.6540874,38.3308132 19.1959285,43.7145748 14.0983523,48.9446543 C11.5427762,51.5637669 9.08060397,54.142151 6.99965033,56.7770119 C4.91218013,59.414045 3.21244503,62.1048397 2.1812,64.9531179 C1.14180927,67.7992238 0.776882119,70.8006411 1.37694834,74.0431709 C1.97864371,77.2943894 3.54641854,80.7872636 6.36700132,84.6282305" id="Fill-4" fill="#9487B4"></path>
                <path d="M26.4830675,72.7369272 C28.1447894,74.1352715 28.3261669,76.612106 26.8800344,78.2347285 L24.485743,80.9314967 C23.0412397,82.5524901 20.4943523,82.7327815 18.8358887,81.3317219 L16.0468026,78.9797881 C14.3818225,77.5770993 14.2058755,75.1046093 15.6482066,73.4814437 L18.0457563,70.7868477 C19.4886305,69.162596 22.0317166,68.9817616 23.6956106,70.380106 L26.4830675,72.7369272 Z" id="Fill-6" fill="#9487B4"></path>
                <path d="M49.5455404,45.8898013 C49.5455404,48.1314967 50.8108384,50.1271921 53.0476464,50.1271921 C55.2855404,50.1271921 56.5524675,48.1635364 56.5524675,45.7980265 C56.5524675,43.7083841 55.4175007,41.5432583 53.0644808,41.5432583 C50.7141762,41.5432583 49.5455404,43.6166093 49.5455404,45.8898013 M58.0442159,45.7344901 C58.0442159,49.3082781 55.7569046,51.2252318 52.9683616,51.2252318 C50.0652358,51.2252318 48.053249,49.0753113 48.053249,45.9196689 C48.053249,42.6108874 50.1950238,40.4463046 53.1144411,40.4463046 C56.1136861,40.4463046 58.0442159,42.6277219 58.0442159,45.7344901" id="Fill-8" fill="#3F423F"></path>
                <path d="M60.081943,51.0548238 L60.081943,40.630506 L61.6377709,40.630506 L65.1241285,45.9034861 C65.9202344,47.1253404 66.5686318,48.2255523 67.0720358,49.2937245 L67.1192808,49.276347 C66.9900358,47.8856053 66.957996,46.6148768 66.957996,44.9922543 L66.957996,40.630506 L68.2884596,40.630506 L68.2884596,51.0548238 L66.8591616,51.0548238 L63.3890954,45.7655523 C62.6272013,44.6056053 61.8989762,43.4136185 61.3635325,42.2862543 L61.3141152,42.3003735 C61.3955722,43.617804 61.4102344,44.8695258 61.4102344,46.6013007 L61.4102344,51.0548238 L60.081943,51.0548238 Z" id="Fill-10" fill="#3F423F"></path>
                <path d="M78.5767987,50.7305166 C78.0733947,50.9770596 77.0198848,51.2252318 75.6921364,51.2252318 C72.6103483,51.2252318 70.3062026,49.3680132 70.3062026,45.9354172 C70.3062026,42.6565033 72.6260967,40.4615099 76.0141629,40.4615099 C77.3614609,40.4615099 78.2363086,40.7373775 78.6088384,40.9247285 L78.252057,42.0227682 C77.7334477,41.7756821 76.9720967,41.5899603 76.0641232,41.5899603 C73.5014874,41.5899603 71.7990371,43.1512185 71.7990371,45.8919735 C71.7990371,48.4562384 73.3391166,50.0788609 75.9826662,50.0788609 C76.858057,50.0788609 77.7334477,49.9110596 78.3025603,49.646053 L78.5767987,50.7305166 Z" id="Fill-12" fill="#3F423F"></path>
                <path d="M81.067155,45.8898013 C81.067155,48.1314967 82.3319099,50.1271921 84.5692609,50.1271921 C86.807698,50.1271921 88.0740821,48.1635364 88.0740821,45.7980265 C88.0740821,43.7083841 86.9385722,41.5432583 84.5855523,41.5432583 C82.2352477,41.5432583 81.067155,43.6166093 81.067155,45.8898013 M89.5647444,45.7344901 C89.5647444,49.3082781 87.2785192,51.2252318 84.4899762,51.2252318 C81.5868503,51.2252318 79.5748636,49.0753113 79.5748636,45.9196689 C79.5748636,42.6108874 81.7160954,40.4463046 84.6360556,40.4463046 C87.6358437,40.4463046 89.5647444,42.6277219 89.5647444,45.7344901" id="Fill-14" fill="#3F423F"></path>
                <polygon id="Fill-16" fill="#3F423F" points="91.5871033 40.6306146 93.013143 40.6306146 93.013143 49.9275682 97.6844278 49.9275682 97.6844278 51.0565616 91.5871033 51.0565616"></polygon>
                <path d="M99.6702397,45.8898013 C99.6702397,48.1314967 100.933909,50.1271921 103.171803,50.1271921 C105.410783,50.1271921 106.676081,48.1635364 106.676081,45.7980265 C106.676081,43.7083841 105.540571,41.5432583 103.187551,41.5432583 C100.837789,41.5432583 99.6702397,43.6166093 99.6702397,45.8898013 M108.166743,45.7344901 C108.166743,49.3082781 105.881604,51.2252318 103.091432,51.2252318 C100.188306,51.2252318 98.1763192,49.0753113 98.1763192,45.9196689 C98.1763192,42.6108874 100.31918,40.4463046 103.238054,40.4463046 C106.237299,40.4463046 108.166743,42.6277219 108.166743,45.7344901" id="Fill-18" fill="#3F423F"></path>
                <path d="M118.537897,50.5900305 C117.906877,50.8202821 116.640493,51.1607722 115.16395,51.1607722 C113.510917,51.1607722 112.148413,50.760547 111.078069,49.7868649 C110.138599,48.921249 109.553195,47.5283351 109.553195,45.9035404 C109.553195,42.7962291 111.807923,40.5214079 115.474572,40.5214079 C116.738784,40.5214079 117.744506,40.7869576 118.212612,41.002547 L117.856374,42.0995007 C117.274228,41.8372093 116.544374,41.6525735 115.44036,41.6525735 C112.781062,41.6525735 111.046029,43.2306662 111.046029,45.8432623 C111.046029,48.487898 112.701234,50.0513285 115.262241,50.0513285 C116.18542,50.0513285 116.818612,49.9253417 117.143354,49.7705735 L117.143354,46.6632623 L114.939672,46.6632623 L114.939672,45.5787987 L118.537897,45.5787987 L118.537897,50.5900305 Z" id="Fill-20" fill="#3F423F"></path>
                <path d="M123.316596,51.0548238 L123.316596,46.6311682 L119.84653,40.630506 L121.468066,40.630506 L123.008146,43.5059364 C123.414887,44.2966119 123.755921,44.930347 124.095868,45.6574861 L124.12845,45.6574861 C124.420066,44.9775921 124.80943,44.2966119 125.229748,43.5059364 L126.803497,40.630506 L128.394079,40.630506 L124.742636,46.6148768 L124.742636,51.0548238 L123.316596,51.0548238 Z" id="Fill-22" fill="#3F423F"></path>
                <path d="M142.381542,46.477106 C142.302257,45.024457 142.202879,43.2622715 142.202879,41.9774238 L142.169211,41.9774238 C141.782019,43.1835298 141.34378,44.4971589 140.792588,45.9351457 L138.863144,50.9930795 L137.793343,50.9930795 L136.009436,46.0296358 C135.490826,44.544947 135.068336,43.2150265 134.759343,41.9774238 L134.727303,41.9774238 C134.695807,43.2758477 134.613264,45.0081656 134.517144,46.5846291 L134.224442,51.0528146 L132.87823,51.0528146 L133.641754,40.6306689 L135.441409,40.6306689 L137.30623,45.6717682 C137.761303,46.957702 138.117542,48.1019007 138.406442,49.1814768 L138.442283,49.1814768 C138.732813,48.1317682 139.123807,46.9875695 139.608747,45.6717682 L141.555568,40.6306689 L143.355767,40.6306689 L144.036204,51.0528146 L142.641661,51.0528146 L142.381542,46.477106 Z" id="Fill-24" fill="#3F423F"></path>
                <polygon id="Fill-26" fill="#3F423F" points="152.058791 46.1682212 147.825201 46.1682212 147.825201 49.9271881 152.561652 49.9271881 152.561652 51.0550954 146.399162 51.0550954 146.399162 40.6302344 152.317281 40.6302344 152.317281 41.760857 147.825201 41.760857 147.825201 45.0538901 152.058791 45.0538901"></polygon>
                <path d="M156.006521,50.0026715 C156.362759,50.0510026 156.881911,50.0629497 157.435275,50.0629497 C160.46656,50.0629497 162.087554,48.4560755 162.087554,45.6430954 C162.105474,43.1830954 160.645223,41.6218371 157.661726,41.6218371 C156.931872,41.6218371 156.37905,41.6832013 156.006521,41.7586848 L156.006521,50.0026715 Z M154.596229,40.7860887 C155.452613,40.6465258 156.47517,40.555294 157.596017,40.555294 C159.623209,40.555294 161.06717,41.0190556 162.022931,41.8531748 C163.012362,42.7030424 163.580388,43.9091483 163.580388,45.5947642 C163.580388,47.2983007 163.012362,48.6890424 162.007726,49.6480623 C160.969421,50.6222874 159.282176,51.1490424 157.157779,51.1490424 C156.134136,51.1490424 155.309249,51.1012543 154.596229,51.0246848 L154.596229,40.7860887 Z" id="Fill-28" fill="#3F423F"></path>
                <mask id="mask-2" fill="white">
                    <use xlink:href="#path-1"></use>
                </mask>
                <g id="Clip-31"></g>
                <polygon id="Fill-30" fill="#3F423F" mask="url(#mask-2)" points="165.583523 51.0547152 167.010649 51.0547152 167.010649 40.6303974 165.583523 40.6303974"></polygon>
                <path d="M177.295078,50.7305166 C176.792217,50.9770596 175.738707,51.2252318 174.408244,51.2252318 C171.328085,51.2252318 169.023939,49.3680132 169.023939,45.9354172 C169.023939,42.6565033 171.344376,40.4615099 174.732442,40.4615099 C176.078654,40.4615099 176.955131,40.7373775 177.327661,40.9247285 L176.970879,42.0227682 C176.451727,41.7756821 175.690376,41.5899603 174.78186,41.5899603 C172.22031,41.5899603 170.517317,43.1512185 170.517317,45.8919735 C170.517317,48.4562384 172.057396,50.0788609 174.700403,50.0788609 C175.576336,50.0788609 176.451727,49.9110596 177.020297,49.646053 L177.295078,50.7305166 Z" id="Fill-32" fill="#3F423F" mask="url(#mask-2)"></path>
                <path d="M184.714232,46.7253325 L183.628139,43.7260874 C183.384854,43.0445642 183.224656,42.4244053 183.061742,41.8210808 L183.028073,41.8210808 C182.865159,42.4244053 182.707132,43.0749748 182.476338,43.709253 L181.407079,46.7253325 L184.714232,46.7253325 Z M181.114377,47.774498 L179.979954,51.0528689 L178.519702,51.0528689 L182.249887,40.6323523 L183.937132,40.6323523 L187.66406,51.0528689 L186.157106,51.0528689 L184.991728,47.774498 L181.114377,47.774498 Z" id="Fill-33" fill="#3F423F" mask="url(#mask-2)"></path>
                <polygon id="Fill-34" fill="#3F423F" mask="url(#mask-2)" points="189.458991 40.6306146 190.885574 40.6306146 190.885574 49.9275682 195.556315 49.9275682 195.556315 51.0565616 189.458991 51.0565616"></polygon>
                <path d="M208.265718,50.7305166 C207.762857,50.9770596 206.708804,51.2252318 205.380513,51.2252318 C202.298725,51.2252318 199.995665,49.3680132 199.995665,45.9354172 C199.995665,42.6565033 202.315559,40.4615099 205.703082,40.4615099 C207.049837,40.4615099 207.924685,40.7373775 208.297758,40.9247285 L207.940976,42.0227682 C207.421824,41.7756821 206.661016,41.5899603 205.753585,41.5899603 C203.190407,41.5899603 201.487956,43.1512185 201.487956,45.8919735 C201.487956,48.4562384 203.028036,50.0788609 205.671585,50.0788609 C206.546976,50.0788609 207.421824,49.9110596 207.991479,49.646053 L208.265718,50.7305166 Z" id="Fill-35" fill="#3F423F" mask="url(#mask-2)"></path>
                <polygon id="Fill-36" fill="#3F423F" mask="url(#mask-2)" points="215.895954 46.1682212 211.663993 46.1682212 211.663993 49.9271881 216.399358 49.9271881 216.399358 51.0550954 210.235238 51.0550954 210.235238 40.6302344 216.154444 40.6302344 216.154444 41.760857 211.663993 41.760857 211.663993 45.0538901 215.895954 45.0538901"></polygon>
                <path d="M218.432469,51.0548238 L218.432469,40.630506 L219.989383,40.630506 L223.47574,45.9034861 C224.27076,47.1253404 224.919701,48.2255523 225.422562,49.2937245 L225.471979,49.276347 C225.341105,47.8856053 225.308522,46.6148768 225.308522,44.9922543 L225.308522,40.630506 L226.639528,40.630506 L226.639528,51.0548238 L225.210774,51.0548238 L221.740707,45.7655523 C220.97827,44.6056053 220.250045,43.4136185 219.714601,42.2862543 L219.664641,42.3003735 C219.746641,43.617804 219.762932,44.8695258 219.762932,46.6013007 L219.762932,51.0548238 L218.432469,51.0548238 Z" id="Fill-37" fill="#3F423F" mask="url(#mask-2)"></path>
                <polygon id="Fill-38" fill="#3F423F" mask="url(#mask-2)" points="231.383907 41.775845 228.059921 41.775845 228.059921 40.6305603 236.15294 40.6305603 236.15294 41.775845 232.811033 41.775845 232.811033 51.052706 231.383907 51.052706"></polygon>
                <polygon id="Fill-39" fill="#3F423F" mask="url(#mask-2)" points="243.213195 46.1682212 238.979605 46.1682212 238.979605 49.9271881 243.716056 49.9271881 243.716056 51.0550954 237.553566 51.0550954 237.553566 40.6302344 243.472771 40.6302344 243.472771 41.760857 238.979605 41.760857 238.979605 45.0538901 243.213195 45.0538901"></polygon>
                <path d="M247.16087,45.5185748 L248.605917,45.5185748 C250.110698,45.5185748 251.069718,44.7295285 251.069718,43.5380848 C251.069718,42.1918728 250.048248,41.6042967 248.55487,41.6042967 C247.874433,41.6042967 247.404698,41.6526278 247.16087,41.7139921 L247.16087,45.5185748 Z M245.750579,40.7696344 C246.463599,40.646906 247.50136,40.5551311 248.459294,40.5551311 C249.965705,40.5551311 250.955135,40.8315417 251.62091,41.4039126 C252.156354,41.8676742 252.480552,42.5796079 252.480552,43.3974358 C252.480552,44.7621113 251.573122,45.6749722 250.436526,46.0437007 L250.436526,46.0904026 C251.264672,46.3678993 251.766989,47.1097007 252.025479,48.1930781 C252.382261,49.6478993 252.64238,50.6525351 252.869374,51.0549325 L251.410751,51.0549325 C251.232089,50.7437669 250.988261,49.8629457 250.697731,48.5645219 C250.370817,47.124906 249.769665,46.586747 248.488619,46.5405881 L247.16087,46.5405881 L247.16087,51.0549325 L245.750579,51.0549325 L245.750579,40.7696344 Z" id="Fill-40" fill="#3F423F" mask="url(#mask-2)"></path>
                <path d="M52.8737086,68.1118013 L53.9842384,68.1118013 L53.9842384,66.901894 L52.8737086,66.901894 L52.8737086,68.1118013 Z M50.8220795,68.1118013 L51.9347815,68.1118013 L51.9347815,66.901894 L50.8220795,66.901894 L50.8220795,68.1118013 Z M53.5774967,72.4132715 L53.5774967,69.8913642 L51.589947,69.8913642 C50.3534305,69.8913642 49.5073642,71.048053 49.5073642,72.5403444 C49.5073642,73.9940795 50.3376821,75.2050728 51.5573642,75.2050728 C52.8737086,75.2050728 53.5470861,74.2797219 53.5774967,72.4132715 L53.5774967,72.4132715 Z M57.3027947,76.9716026 L56.5827152,76.9716026 C55.033947,76.9716026 54.0483179,76.2754172 53.592702,74.8922781 C53.124053,75.6177881 52.3252318,75.9881457 51.1984106,75.9881457 C49.6018543,75.9881457 48.4114967,74.4958543 48.4114967,72.5979073 C48.4114967,70.5756026 49.6018543,69.1511921 51.3857616,69.1511921 L54.705404,69.1511921 L54.705404,73.7263576 C54.705404,75.1491391 55.4412318,75.9881457 56.709245,75.9881457 L57.3027947,75.9881457 L57.3027947,76.9716026 Z" id="Fill-41" fill="#3F423F" mask="url(#mask-2)"></path>
                <path d="M61.1308914,67.0503086 C61.1477258,67.1779245 61.1634742,67.2626397 61.1634742,67.3343219 C61.1634742,67.5906397 60.9446265,67.8056861 60.5226795,67.8056861 C60.2234609,67.8056861 59.9883219,67.5906397 59.7846795,67.1665205 C59.7846795,67.7758185 59.5663748,68.1038185 59.0814344,68.1038185 C58.7528914,68.1038185 58.5970371,67.9365603 58.5177523,67.5906397 L58.2657788,66.5088914 L58.5970371,66.4366662 L58.7985073,67.406004 C58.8604146,67.6194212 58.970653,67.7334609 59.1254212,67.7334609 C59.3936861,67.7334609 59.5821232,67.4347854 59.5821232,67.1779245 C59.5821232,67.1209046 59.5821232,67.0633417 59.5663748,66.9943748 L59.4099775,66.2672358 L59.7548119,66.1950106 L59.9106662,66.9096596 C59.9883219,67.2626397 60.1767589,67.4472755 60.458057,67.4472755 C60.6937391,67.4472755 60.786057,67.3066265 60.786057,67.1209046 C60.786057,67.078547 60.786057,67.0361894 60.7730238,66.9943748 L60.5677523,66.024494 L60.8968384,65.9522689 L61.1308914,67.0503086 Z" id="Fill-42" fill="#3F423F" mask="url(#mask-2)"></path>
                <path d="M59.590106,79.1519338 L60.6995497,79.1519338 L60.6995497,77.9376821 L59.590106,77.9376821 L59.590106,79.1519338 Z M57.5390199,79.1519338 L58.6506358,79.1519338 L58.6506358,77.9376821 L57.5390199,77.9376821 L57.5390199,79.1519338 Z M62.4237219,76.9716026 L57.0220397,76.9716026 L57.0220397,75.9881457 L58.0239603,75.9881457 C58.6962517,75.9881457 59.1355762,75.7904768 59.356053,75.4049139 C59.5119073,75.1350199 59.590106,74.6761457 59.590106,74.0223179 L59.590106,70.5050066 L60.6859735,70.5050066 L60.6859735,74.4665298 C60.6859735,75.077457 60.5920265,75.5895497 60.387298,75.9745695 L62.4237219,75.9745695 L62.4237219,76.9716026 Z" id="Fill-43" fill="#3F423F" mask="url(#mask-2)"></path>
                <path d="M64.7077748,69.478106 L65.8193907,69.478106 L65.8193907,68.2681987 L64.7077748,68.2681987 L64.7077748,69.478106 Z M65.8193907,70.5050066 L65.8193907,74.4665298 C65.8193907,76.1309669 65.0520662,76.9716026 63.5179603,76.9716026 L62.1549139,76.9716026 L62.1549139,75.9881457 L63.1568344,75.9881457 C63.8302119,75.9881457 64.2695364,75.7904768 64.4894702,75.3924238 C64.6453245,75.1350199 64.7240662,74.6761457 64.7240662,74.0223179 L64.7240662,70.5050066 L65.8193907,70.5050066 Z" id="Fill-44" fill="#3F423F" mask="url(#mask-2)"></path>
                <path d="M71.3623192,76.971494 L70.1258026,76.971494 C69.5604914,76.971494 69.0912993,76.7884874 68.700849,76.4311629 C68.2463192,76.0325669 68.0274715,75.4618252 68.0274715,74.7080768 L68.0274715,67.7554543 L69.1542927,67.7554543 L69.1542927,74.1063815 C69.1542927,74.7650967 69.263445,75.2332026 69.4660013,75.518845 C69.638147,75.7615868 69.9373656,75.9022358 70.3598556,75.9603417 C70.4662927,75.9744609 70.5944517,75.9744609 71.3623192,75.9744609 L71.3623192,76.971494 Z" id="Fill-45" fill="#3F423F" mask="url(#mask-2)"></path>
                <path d="M82.1776305,75.9883086 C82.2080411,75.6782291 82.2237894,75.3773815 82.2237894,75.0933682 C82.2237894,72.8408119 81.1914583,71.4017391 79.4998689,71.4017391 C77.5128623,71.4017391 75.1647298,73.5956464 74.429445,75.9883086 L82.1776305,75.9883086 Z M83.2577497,76.9717656 L70.6243192,76.9717656 L70.6243192,75.9883086 L73.5198424,75.9883086 L73.5198424,67.769302 L74.663498,67.769302 L74.4136967,74.3955536 C75.4775245,72.0430768 77.5584781,70.4888781 79.5943589,70.4888781 C82.0988887,70.4888781 83.3516967,72.115302 83.3516967,75.3198185 C83.3516967,75.8188781 83.3202,76.3716993 83.2577497,76.9717656 L83.2577497,76.9717656 Z" id="Fill-46" fill="#3F423F" mask="url(#mask-2)"></path>
                <path d="M90.3986464,76.971494 L87.7051364,76.971494 C87.4097192,78.4393483 86.341547,79.2077589 84.5277722,79.3093086 L84.5277722,78.3546331 C85.9847656,78.3546331 86.7195073,77.6253219 86.7195073,75.9462225 L86.7195073,70.504898 L87.8164609,70.504898 L87.8164609,75.9744609 L90.3986464,75.9744609 L90.3986464,76.971494 Z" id="Fill-47" fill="#3F423F" mask="url(#mask-2)"></path>
                <path d="M104.82918,76.971494 L89.9600278,76.971494 L89.9600278,75.9744609 L91.414306,75.9744609 C92.4167695,75.9744609 93.0597364,75.3629907 93.0597364,74.1514543 L93.0597364,70.504898 L94.1697232,70.504898 L94.1697232,74.463706 C94.1697232,75.0480238 94.0752331,75.5340503 93.9025444,75.9179841 L93.9025444,75.9744609 L95.9547166,75.9744609 C96.9566371,75.9744609 97.2846371,75.5340503 97.2846371,74.0222093 L97.2846371,70.504898 L98.3810477,70.504898 L98.3810477,74.463706 C98.3810477,75.0773483 98.2871007,75.5894411 98.0818291,75.9744609 L99.9623987,75.9744609 C101.135922,75.9744609 101.526915,75.5340503 101.526915,74.0222093 L101.526915,70.504898 L102.622783,70.504898 L102.622783,74.463706 C102.622783,75.0773483 102.512544,75.5894411 102.307816,75.9744609 L104.82918,75.9744609 L104.82918,76.971494 Z" id="Fill-48" fill="#3F423F" mask="url(#mask-2)"></path>
                <path d="M108.196665,67.7556172 L108.196665,74.4676702 C108.196665,76.1326503 107.42934,76.971657 105.895234,76.971657 L104.532188,76.971657 L104.532188,75.9898291 L105.534652,75.9898291 C106.207486,75.9898291 106.646268,75.7905311 106.868917,75.3924781 C107.022599,75.1367033 107.100797,74.6783722 107.100797,74.0223722 L107.100797,67.7556172 L108.196665,67.7556172 Z" id="Fill-49" fill="#3F423F" mask="url(#mask-2)"></path>
                <polygon id="Fill-50" fill="#3F423F" mask="url(#mask-2)" points="110.294344 76.9716026 111.389669 76.9716026 111.389669 67.7555629 110.294344 67.7555629"></polygon>
                <path d="M128.359325,69.478106 L129.472026,69.478106 L129.472026,68.2681987 L128.359325,68.2681987 L128.359325,69.478106 Z M131.804411,75.9881457 C131.83645,75.675894 131.850026,75.3772185 131.850026,75.0932053 C131.850026,72.8846358 130.848649,71.4015762 129.127735,71.4015762 C127.389987,71.4015762 125.292742,73.0975099 124.306026,75.2908742 C124.27453,75.5336159 124.228371,75.7785298 124.164834,75.9881457 L131.804411,75.9881457 Z M132.883987,76.9716026 L123.78796,76.9716026 C122.897907,78.5230861 121.61306,79.3360265 119.955139,79.3360265 C117.465815,79.3360265 115.523881,77.3169801 115.523881,74.4377483 L115.523881,70.5050066 L116.620291,70.5050066 L116.620291,74.2400795 C116.620291,76.7283179 117.904053,78.3688609 119.955139,78.3688609 C122.052384,78.3688609 123.274781,76.7283179 123.274781,74.2400795 L123.274781,70.5050066 L124.36902,70.5050066 L124.36902,73.7100662 C125.511046,71.716543 127.436689,70.4887152 129.205391,70.4887152 C131.710464,70.4887152 132.962728,72.1151391 132.962728,75.3196556 C132.962728,75.8187152 132.932318,76.3747947 132.883987,76.9716026 L132.883987,76.9716026 Z" id="Fill-51" fill="#3F423F" mask="url(#mask-2)"></path>
                <polygon id="Fill-52" fill="#3F423F" mask="url(#mask-2)" points="135.030106 76.9716026 136.125974 76.9716026 136.125974 67.7555629 135.030106 67.7555629"></polygon>
                <path d="M143.343548,76.971494 L140.651125,76.971494 C140.354078,78.4393483 139.285906,79.2077589 137.472674,79.3093086 L137.472674,78.3546331 C138.928581,78.3546331 139.664952,77.6253219 139.664952,75.9462225 L139.664952,70.504898 L140.760277,70.504898 L140.760277,75.9744609 L143.343548,75.9744609 L143.343548,76.971494 Z" id="Fill-53" fill="#3F423F" mask="url(#mask-2)"></path>
                <path d="M150.574971,74.8788649 C150.574971,74.2396993 150.43215,73.7265205 150.167686,73.3393285 C149.823395,72.8695934 149.322163,72.643143 148.665077,72.643143 C147.943368,72.643143 147.412812,72.8989179 147.052229,73.3968914 C146.753554,73.8112358 146.597156,74.3515669 146.597156,75.0482954 C146.597156,75.6896331 146.753554,76.2147589 147.052229,76.6149841 C147.412812,77.0858053 147.927077,77.3133417 148.600454,77.3133417 C149.916799,77.3133417 150.574971,76.5014874 150.574971,74.8788649 M151.842984,74.9787854 C151.842984,75.9046795 151.558428,76.6589709 150.997461,77.2568649 C150.402282,77.8982026 149.602375,78.2131695 148.600454,78.2131695 C147.396521,78.2131695 146.48909,77.7977391 145.893911,76.9717656 L142.871858,76.9717656 L142.871858,75.9747325 L145.438295,75.9747325 C145.343805,75.676057 145.298732,75.3496861 145.298732,74.9923616 C145.298732,74.0545205 145.595236,73.2850238 146.190958,72.6702954 C146.785593,72.0577391 147.599077,71.7585205 148.616746,71.7585205 C149.634958,71.7585205 150.445726,72.0707722 151.027328,72.6844146 C151.576348,73.2698185 151.842984,74.0366 151.842984,74.9787854" id="Fill-54" fill="#3F423F" mask="url(#mask-2)"></path>
                <path d="M162.752677,76.971494 L153.550756,76.971494 L153.550756,75.9896662 L156.100902,75.9896662 L154.078054,68.852951 L155.254293,68.852951 L157.240756,75.9896662 L157.697458,75.9896662 C158.840028,75.9896662 159.261975,75.5612026 159.261975,74.0222093 L159.261975,67.7554543 L160.374677,67.7554543 L160.374677,74.463706 C160.374677,75.0773483 160.263895,75.5894411 160.045591,75.9744609 L162.752677,75.9744609 L162.752677,76.971494 Z M156.02216,66.404898 L155.381366,66.4597457 C155.317286,66.1328318 155.130478,65.9606861 154.801935,65.9606861 C154.379445,65.9606861 154.158425,66.2164609 154.158425,66.7290967 C154.158425,66.9294808 154.207842,67.0989113 154.315366,67.2422755 L155.990121,67.2422755 L155.990121,67.8135603 L153.00065,67.8135603 L153.00065,67.2422755 L153.627869,67.2422755 C153.550756,67.0864212 153.51763,66.9175338 153.51763,66.7464742 C153.51763,66.017706 153.924915,65.491494 154.801935,65.491494 C155.47477,65.491494 155.882054,65.7896265 156.02216,66.404898 L156.02216,66.404898 Z" id="Fill-55" fill="#3F423F" mask="url(#mask-2)"></path>
                <path d="M165.99613,67.7556172 L165.99613,74.4676702 C165.99613,76.1326503 165.229348,76.971657 163.694699,76.971657 L162.333825,76.971657 L162.333825,75.9898291 L163.335746,75.9898291 C164.006951,75.9898291 164.446275,75.7905311 164.666752,75.3924781 C164.822607,75.1367033 164.900805,74.6783722 164.900805,74.0223722 L164.900805,67.7556172 L165.99613,67.7556172 Z" id="Fill-56" fill="#3F423F" mask="url(#mask-2)"></path>
                <path d="M175.621192,81.5722914 L176.733894,81.5722914 L176.733894,80.3623841 L175.621192,80.3623841 L175.621192,81.5722914 Z M173.571735,81.5722914 L174.682808,81.5722914 L174.682808,80.3623841 L173.571735,80.3623841 L173.571735,81.5722914 Z M183.152159,76.9716026 L182.917563,76.9716026 C181.476861,76.9716026 180.365245,76.2308874 180.006834,75.0090331 C180.006834,77.385947 177.68857,79.2806358 175.027099,79.2806358 C172.147868,79.2806358 169.955589,77.0601192 169.955589,74.2091258 L169.955589,72.7847152 L171.068291,72.7847152 L171.068291,74.0223179 C171.068291,76.5882119 172.58502,78.2836026 175.074887,78.2836026 C177.173219,78.2836026 179.004914,76.6881325 179.004914,74.9786225 C179.004914,73.6970331 178.253338,73.0410331 176.96849,73.0410331 L176.96849,72.1428344 L176.953285,72.1428344 C176.953285,72.1298013 177.235669,72.1151391 177.798265,72.1151391 C178.755656,72.1151391 180.068199,73.0127947 180.55151,74.1510199 C181.132026,75.5216689 181.64955,75.9745695 182.823073,75.9745695 L183.152159,75.9745695 L183.152159,76.9716026 Z" id="Fill-57" fill="#3F423F" mask="url(#mask-2)"></path>
                <path d="M186.964942,67.0503086 C186.981233,67.1779245 186.996981,67.2626397 186.996981,67.3343219 C186.996981,67.5906397 186.778677,67.8056861 186.355644,67.8056861 C186.056968,67.8056861 185.822372,67.5906397 185.61873,67.1665205 C185.61873,67.7758185 185.399882,68.1038185 184.914942,68.1038185 C184.586942,68.1038185 184.430544,67.9365603 184.351803,67.5906397 L184.099829,66.5088914 L184.430544,66.4366662 L184.632558,67.406004 C184.694465,67.6194212 184.805246,67.7334609 184.959472,67.7334609 C185.227193,67.7334609 185.41563,67.4347854 185.41563,67.1779245 C185.41563,67.1209046 185.41563,67.0633417 185.399882,66.9943748 L185.244028,66.2672358 L185.588862,66.1950106 L185.744717,66.9096596 C185.822372,67.2626397 186.010809,67.4472755 186.292107,67.4472755 C186.528332,67.4472755 186.620107,67.3066265 186.620107,67.1209046 C186.620107,67.078547 186.620107,67.0361894 186.605988,66.9943748 L186.401803,66.024494 L186.730889,65.9522689 L186.964942,67.0503086 Z" id="Fill-58" fill="#3F423F" mask="url(#mask-2)"></path>
                <path d="M185.407974,79.1378146 L186.520675,79.1378146 L186.520675,77.9262781 L185.407974,77.9262781 L185.407974,79.1378146 Z M188.257881,76.9716026 L182.855656,76.9716026 L182.855656,75.9881457 L183.85649,75.9881457 C184.530954,75.9881457 184.969192,75.7904768 185.190212,75.4049139 C185.346609,75.1350199 185.423722,74.6761457 185.423722,74.0223179 L185.423722,70.5050066 L186.520675,70.5050066 L186.520675,74.4665298 C186.520675,75.077457 186.426185,75.5895497 186.221457,75.9745695 L188.257881,75.9745695 L188.257881,76.9716026 Z" id="Fill-59" fill="#3F423F" mask="url(#mask-2)"></path>
                <path d="M199.041315,75.9883086 C199.073355,75.6782291 199.08856,75.3773815 199.08856,75.0933682 C199.08856,72.8847987 198.087183,71.4017391 196.363554,71.4017391 C194.376004,71.4017391 192.027872,73.5956464 191.292044,75.9883086 L199.041315,75.9883086 Z M202.328918,76.9717656 L187.488547,76.9717656 L187.488547,75.9883086 L190.368322,75.9883086 L190.368322,67.769302 L191.527183,67.769302 L191.276838,74.3955536 C192.340666,72.0267854 194.454746,70.4888781 196.442838,70.4888781 C198.96203,70.4888781 200.215381,72.115302 200.215381,75.3198185 C200.215381,75.5337788 200.215381,75.7482821 200.19909,75.9747325 L202.328918,75.9747325 L202.328918,76.9717656 Z" id="Fill-60" fill="#3F423F" mask="url(#mask-2)"></path>
                <path d="M205.791219,67.7556172 L205.791219,74.4676702 C205.791219,76.1326503 205.023894,76.971657 203.488702,76.971657 L202.127285,76.971657 L202.127285,75.9898291 L203.128662,75.9898291 C203.80204,75.9898291 204.241364,75.7905311 204.462927,75.3924781 C204.617695,75.1367033 204.694808,74.6783722 204.694808,74.0223722 L204.694808,67.7556172 L205.791219,67.7556172 Z" id="Fill-61" fill="#3F423F" mask="url(#mask-2)"></path>
                <polygon id="Fill-62" fill="#3F423F" mask="url(#mask-2)" points="207.88955 76.9716026 208.985417 76.9716026 208.985417 67.7555629 207.88955 67.7555629"></polygon>
                <path d="M215.308649,69.478106 L216.419179,69.478106 L216.419179,68.2681987 L215.308649,68.2681987 L215.308649,69.478106 Z M218.987788,76.9716026 L216.419179,76.9716026 C215.996146,78.439457 214.932318,79.2078675 213.116371,79.3094172 L213.116371,78.3547417 C214.572821,78.3547417 215.308649,77.6286887 215.308649,75.9463311 L215.308649,70.5050066 L216.404517,70.5050066 L216.404517,75.9745695 L218.987788,75.9745695 L218.987788,76.9716026 Z" id="Fill-63" fill="#3F423F" mask="url(#mask-2)"></path>
                <path d="M229.053641,75.5338331 L229.053641,76.9712768 L218.20629,76.9712768 L218.20629,75.9747868 L227.723721,75.9747868 C227.737297,75.8042702 227.753045,75.6337536 227.753045,75.4616079 C227.753045,74.3684556 227.470661,73.4816609 226.893946,72.8294623 C226.220568,72.0594225 225.218648,71.6722305 223.886012,71.6722305 L220.663032,71.6722305 C221.2278,70.7468795 222.024992,69.4511709 223.058409,67.7693563 L224.356833,67.7693563 L222.493641,70.6925748 L223.886012,70.6925748 C225.468992,70.6925748 226.737548,71.1291841 227.675389,72.029555 C228.598568,72.9130914 229.053641,74.0806411 229.053641,75.5338331" id="Fill-64" fill="#3F423F" mask="url(#mask-2)"></path>
                <path d="M236.098419,76.971494 L233.405995,76.971494 C233.106776,78.4393483 232.040776,79.2077589 230.227544,79.3093086 L230.227544,78.3546331 C231.684538,78.3546331 232.420366,77.6253219 232.420366,75.9462225 L232.420366,70.504898 L233.51569,70.504898 L233.51569,75.9744609 L236.098419,75.9744609 L236.098419,76.971494 Z" id="Fill-65" fill="#3F423F" mask="url(#mask-2)"></path>
                <path d="M242.70246,74.8788649 C242.70246,74.2396993 242.562354,73.7265205 242.27997,73.3393285 C241.950883,72.8695934 241.467029,72.643143 240.793109,72.643143 C240.089864,72.643143 239.541387,72.8989179 239.180261,73.3968914 C238.883758,73.8112358 238.743652,74.3515669 238.743652,75.0482954 C238.743652,75.6896331 238.883758,76.2147589 239.180261,76.6149841 C239.541387,77.0858053 240.057281,77.3133417 240.731201,77.3133417 C242.045374,77.3133417 242.70246,76.5014874 242.70246,74.8788649 L242.70246,74.8788649 Z M245.756009,76.9717656 L243.359546,76.9717656 C242.764367,77.7977391 241.888976,78.2131695 240.731201,78.2131695 C239.524552,78.2131695 238.617665,77.7977391 238.037691,76.9717656 L235.722142,76.9717656 L235.722142,75.9747325 L237.569042,75.9747325 C237.490844,75.676057 237.442513,75.3496861 237.442513,74.9923616 C237.442513,74.0545205 237.741731,73.2850238 238.320619,72.6702954 C238.915797,72.0577391 239.728738,71.7585205 240.746407,71.7585205 C241.762989,71.7585205 242.576473,72.0707722 243.157532,72.6844146 C243.70438,73.2698185 243.986764,74.0366 243.986764,74.9787854 C243.986764,75.3333947 243.938976,75.6613947 243.846658,75.9747325 L245.756009,75.9747325 L245.756009,76.9717656 Z" id="Fill-66" fill="#3F423F" mask="url(#mask-2)"></path>
                <path d="M249.092269,67.7556172 L249.092269,74.4676702 C249.092269,76.1326503 248.324944,76.971657 246.789752,76.971657 L245.428878,76.971657 L245.428878,75.9898291 L246.431885,75.9898291 C247.102004,75.9898291 247.541328,75.7905311 247.761805,75.3924781 C247.91766,75.1367033 247.996401,74.6783722 247.996401,74.0223722 L247.996401,67.7556172 L249.092269,67.7556172 Z" id="Fill-67" fill="#3F423F" mask="url(#mask-2)"></path>
                <polygon id="Fill-68" fill="#3F423F" mask="url(#mask-2)" points="251.189351 76.9716026 252.286848 76.9716026 252.286848 67.7555629 251.189351 67.7555629"></polygon>
            </g>
        </g>
    </g>
</svg>