<?xml version="1.0" encoding="UTF-8"?>
<svg width="30px" height="30px" viewBox="0 0 30 30" version="1.1" xmlns="http://www.w3.org/2000/svg" xmlns:xlink="http://www.w3.org/1999/xlink">
    <title>8E3384BE-E372-4969-95FD-94F024885E69</title>
    <g id="Page-1" stroke="none" stroke-width="1" fill="none" fill-rule="evenodd">
        <g id="AWZMC-Home" transform="translate(-1307.000000, -3388.000000)" fill="#FFFFFF">
            <g id="Footer/green" transform="translate(0.000000, 2949.000000)">
                <g id="social-media-2-copy" transform="translate(992.000000, 439.000000)">
                    <g id="ic/30/Instagram" transform="translate(315.000000, 0.000000)">
                        <g transform="translate(4.000000, 3.000000)" id="Instagram">
                            <path d="M19.676814,0 L2.65443601,0 C1.18834435,0 0,1.2715651 0,2.84109201 L0,21.1154297 C0,22.6843032 1.18834435,23.9565217 2.65443601,23.9565217 L19.676814,23.9565217 C21.1429057,23.9565217 22.33125,22.6843032 22.33125,21.1154297 L22.33125,2.84109201 C22.33125,1.2715651 21.1429057,0 19.676814,0 L19.676814,0 Z M16.0508715,3.74281855 C16.0508715,3.32985393 16.3633372,2.9946469 16.7482852,2.9946469 L18.8417447,2.9946469 C19.2273019,2.9946469 19.5397676,3.32985393 19.5397676,3.74281855 L19.5397676,5.98929379 C19.5397676,6.40225841 19.2273019,6.73746545 18.8417447,6.73746545 L16.7482852,6.73746545 C16.3633372,6.73746545 16.0508715,6.40225841 16.0508715,5.98929379 L16.0508715,3.74281855 L16.0508715,3.74281855 Z M11.1915115,7.4098398 C13.5633275,7.4098398 15.4862404,9.46812863 15.4862404,12.0060314 C15.4862404,14.5445877 13.5633275,16.6022231 11.1915115,16.6022231 C8.8203047,16.6022231 6.89739178,14.5445877 6.89739178,12.0060314 C6.89739178,9.46812863 8.8203047,7.4098398 11.1915115,7.4098398 L11.1915115,7.4098398 Z M20.2377905,20.9618748 C20.2377905,21.3748395 19.9253247,21.7106999 19.5397676,21.7106999 L2.79148239,21.7106999 C2.40592525,21.7106999 2.09345952,21.3748395 2.09345952,20.9618748 L2.09345952,9.73211234 L4.8849419,9.73211234 C4.52131219,10.2934044 4.398275,11.3408448 4.398275,12.0060314 C4.398275,16.014794 7.44618638,19.2766917 11.1915115,19.2766917 C14.9374458,19.2766917 17.9853572,16.014794 17.9853572,12.0060314 C17.9853572,11.3408448 17.8970384,10.3097401 17.4463081,9.73211234 L20.2377905,9.73211234 L20.2377905,20.9618748 L20.2377905,20.9618748 Z"></path>
                        </g>
                    </g>
                </g>
            </g>
        </g>
    </g>
</svg>