<?xml version="1.0" encoding="UTF-8"?>
<svg width="30px" height="30px" viewBox="0 0 30 30" version="1.1" xmlns="http://www.w3.org/2000/svg" xmlns:xlink="http://www.w3.org/1999/xlink">
    <title>BCC0BF99-FEA8-4B3D-BF3C-F1DAC459D53F</title>
    <g id="Page-1" stroke="none" stroke-width="1" fill="none" fill-rule="evenodd">
        <g id="AWZMC-Home" transform="translate(-1143.000000, -3388.000000)" fill="#FFFFFF">
            <g id="Footer/green" transform="translate(0.000000, 2949.000000)">
                <g id="social-media-2-copy" transform="translate(992.000000, 439.000000)">
                    <g id="ic/30/linkedin" transform="translate(151.000000, 0.000000)">
                        <g transform="translate(3.000000, 4.000000)" id="linkedin">
                            <path d="M5.1884962,7.27782215 L5.1884962,22.6956522 L0.59424895,22.6956522 L0.59424895,7.27782215 L5.1884962,7.27782215 Z M17.7412065,7.12961282 C21.0063809,7.12961282 23.571875,9.34733862 23.571875,14.1231979 L23.571875,14.1231979 L23.571875,22.6956522 L18.3622925,22.6956522 L18.3622925,14.7173887 C18.3622925,12.6289231 17.5475964,11.2036773 15.7552649,11.2036773 C14.3846584,11.2036773 13.6223584,12.165346 13.267726,13.0925002 C13.1348187,13.4254636 13.155266,13.8890407 13.155266,14.3526178 L13.155266,14.3526178 L13.155266,22.6956522 L7.99424582,22.6956522 L7.99424582,22.6956522 L7.99469,22.5994418 C7.99478619,22.5784013 7.99489717,22.5540239 7.99502209,22.5264228 L7.9959322,22.3230369 C8.00054297,21.2819131 8.01344735,18.2146029 8.01994304,15.1108172 L8.02132159,14.3948171 C8.02215586,13.9182596 8.02281167,13.4444613 8.0232355,12.9806675 L8.02304227,10.6764958 C8.02069589,8.94848914 8.01246698,7.63020405 7.99424582,7.27782215 L7.99424582,7.27782215 L13.155266,7.27782215 L13.155266,9.69789765 C13.4600582,8.639453 15.1092588,7.12961282 17.7412065,7.12961282 Z M2.80638859,0 C4.50159554,0 5.54376762,1.15116008 5.57699444,2.67250508 C5.57699444,4.16677989 4.50159554,5.34974745 2.77443972,5.34974745 L2.77443972,5.34974745 L2.7412129,5.34974745 C1.07859379,5.34974745 0,4.17084042 0,2.67656561 C0,1.1538671 1.10990368,0 2.80638859,0 Z"></path>
                        </g>
                    </g>
                </g>
            </g>
        </g>
    </g>
</svg>