<?xml version="1.0" encoding="UTF-8"?>
<svg width="36px" height="36px" viewBox="0 0 36 36" version="1.1" xmlns="http://www.w3.org/2000/svg" xmlns:xlink="http://www.w3.org/1999/xlink">
    <title>399995B4-F04D-46FC-B51B-3794C975B2C6</title>
    <g id="Page-1" stroke="none" stroke-width="1" fill="none" fill-rule="evenodd">
        <g id="AWZMC-Home" transform="translate(-158.000000, -2717.000000)" fill="#0D7F68" fill-rule="nonzero">
            <g id="Patient-Services" transform="translate(108.000000, 2196.000000)">
                <g id="3" transform="translate(3.000000, 474.000000)">
                    <g id="ic/36/Stay-updated-about-your-health/green" transform="translate(47.000000, 47.000000)">
                        <g id="ic/36/Stay-updated-about-your-health" transform="translate(6.000000, 2.000000)">
                            <path d="M2.76923077,31.5076923 L21.2307692,31.5076923 C22.7577846,31.5076923 24,30.2654769 24,28.7384615 L24,9.23076923 L17.5384615,9.23076923 C16.0114462,9.23076923 14.7692308,7.98855385 14.7692308,6.46153846 L14.7692308,0 L2.76923077,0 C1.24221538,0 0,1.24221538 0,2.76923077 L0,28.7384615 C0,30.2654769 1.24221538,31.5076923 2.76923077,31.5076923 Z M6.46153846,12.9846154 L17.5384615,12.9846154 C18.0486769,12.9846154 18.4615385,13.3974769 18.4615385,13.9076923 C18.4615385,14.4179077 18.0486769,14.8307692 17.5384615,14.8307692 L6.46153846,14.8307692 C5.95132308,14.8307692 5.53846154,14.4179077 5.53846154,13.9076923 C5.53846154,13.3974769 5.95132308,12.9846154 6.46153846,12.9846154 Z M6.46153846,16.6769231 L17.5384615,16.6769231 C18.0486769,16.6769231 18.4615385,17.0897846 18.4615385,17.6 C18.4615385,18.1102154 18.0486769,18.5230769 17.5384615,18.5230769 L6.46153846,18.5230769 C5.95132308,18.5230769 5.53846154,18.1102154 5.53846154,17.6 C5.53846154,17.0897846 5.95132308,16.6769231 6.46153846,16.6769231 Z M6.46153846,20.3692308 L17.5384615,20.3692308 C18.0486769,20.3692308 18.4615385,20.7820923 18.4615385,21.2923077 C18.4615385,21.8025231 18.0486769,22.2153846 17.5384615,22.2153846 L6.46153846,22.2153846 C5.95132308,22.2153846 5.53846154,21.8025231 5.53846154,21.2923077 C5.53846154,20.7820923 5.95132308,20.3692308 6.46153846,20.3692308 Z M6.46153846,24.0615385 L13.8461538,24.0615385 C14.3563692,24.0615385 14.7692308,24.4744 14.7692308,24.9846154 C14.7692308,25.4948308 14.3563692,25.9076923 13.8461538,25.9076923 L6.46153846,25.9076923 C5.95132308,25.9076923 5.53846154,25.4948308 5.53846154,24.9846154 C5.53846154,24.4744 5.95132308,24.0615385 6.46153846,24.0615385 Z" id="Shape"></path>
                            <path d="M17.5384615,7.38461538 L23.4591385,7.38461538 L16.6153846,0.540861538 L16.6153846,6.46153846 C16.6153846,6.97083077 17.0291692,7.38461538 17.5384615,7.38461538 Z" id="Path"></path>
                        </g>
                    </g>
                </g>
            </g>
        </g>
    </g>
</svg>