<?xml version="1.0" encoding="UTF-8"?>
<svg width="36px" height="36px" viewBox="0 0 36 36" version="1.1" xmlns="http://www.w3.org/2000/svg" xmlns:xlink="http://www.w3.org/1999/xlink">
    <title>10F56CA0-12E6-4928-8A60-BB9EBF1C4511</title>
    <g id="Page-1" stroke="none" stroke-width="1" fill="none" fill-rule="evenodd">
        <g id="AWZMC-Home" transform="translate(-158.000000, -2557.000000)" fill="#0D7F68" fill-rule="nonzero">
            <g id="Patient-Services" transform="translate(108.000000, 2196.000000)">
                <g id="2" transform="translate(3.000000, 314.000000)">
                    <g id="ic/36/book-an-appointment/green" transform="translate(47.000000, 47.000000)">
                        <g id="ic/book-an-appointment" transform="translate(4.500000, 3.375000)">
                            <path d="M24.987819,3.50679525 L22.7845549,3.50679525 L22.7845549,2.00296736 C22.7845549,0.896768546 21.8877864,1.59872116e-14 20.7815875,1.59872116e-14 L20.7014688,1.59872116e-14 C19.59527,1.59872116e-14 18.6985015,0.896768546 18.6985015,2.00296736 L18.6985015,3.50679525 L8.36318991,3.50679525 L8.36318991,2.00296736 C8.36318991,0.896768546 7.46642136,1.59872116e-14 6.36022255,1.59872116e-14 L6.28010386,1.59872116e-14 C5.17390504,1.59872116e-14 4.2771365,0.896768546 4.2771365,2.00296736 L4.2771365,3.50679525 L2.0738724,3.50679525 C0.967673591,3.50679525 0.0709050445,4.4035638 0.0709050445,5.50976261 L0.0709050445,26.9815727 C0.0709050445,28.0879318 0.967673591,28.9845401 2.0738724,28.9845401 L24.987819,28.9845401 C26.0940178,28.9845401 26.9907864,28.0879318 26.9907864,26.9815727 L26.9907864,5.50976261 C26.9907864,4.4035638 26.0939377,3.50679525 24.987819,3.50679525 Z M23.6258012,25.8198516 L3.43589021,25.8198516 L3.43589021,9.55575668 L23.6258012,9.55575668 L23.6258012,25.8198516 Z" id="Shape"></path>
                            <path d="M6.18003561,16.9157804 L9.66503858,16.9157804 C9.84202077,16.9157804 9.98551335,16.7722878 9.98551335,16.5953056 L9.98551335,13.1103027 C9.98551335,12.9333205 9.84202077,12.7898279 9.66503858,12.7898279 L6.18003561,12.7898279 C6.00305341,12.7898279 5.85956083,12.9333205 5.85956083,13.1103027 L5.85956083,16.5953056 C5.85956083,16.7722878 6.00305341,16.9157804 6.18003561,16.9157804 Z" id="Path"></path>
                            <path d="M11.7883442,16.9157804 L15.2733472,16.9157804 C15.4503294,16.9157804 15.593822,16.7722878 15.593822,16.5953056 L15.593822,13.1103027 C15.593822,12.9333205 15.4503294,12.7898279 15.2733472,12.7898279 L11.7883442,12.7898279 C11.611362,12.7898279 11.4678694,12.9333205 11.4678694,13.1103027 L11.4678694,16.5953056 C11.4678694,16.7722878 11.611362,16.9157804 11.7883442,16.9157804 Z" id="Path"></path>
                            <path d="M17.3966528,16.9157804 L20.8816558,16.9157804 C21.058638,16.9157804 21.2021306,16.7722878 21.2021306,16.5953056 L21.2021306,13.1103027 C21.2021306,12.9333205 21.058638,12.7898279 20.8816558,12.7898279 L17.3966528,12.7898279 C17.2196706,12.7898279 17.076178,12.9333205 17.076178,13.1103027 L17.076178,16.5953056 C17.076178,16.7722878 17.2196706,16.9157804 17.3966528,16.9157804 Z" id="Path"></path>
                            <path d="M6.18003561,22.524089 L9.66503858,22.524089 C9.84202077,22.524089 9.98551335,22.3805964 9.98551335,22.2036142 L9.98551335,18.7186113 C9.98551335,18.5416291 9.84202077,18.3981365 9.66503858,18.3981365 L6.18003561,18.3981365 C6.00305341,18.3981365 5.85956083,18.5416291 5.85956083,18.7186113 L5.85956083,22.2036142 C5.85956083,22.3805964 6.00305341,22.524089 6.18003561,22.524089 Z" id="Path"></path>
                            <path d="M11.7883442,22.524089 L15.2733472,22.524089 C15.4503294,22.524089 15.593822,22.3805964 15.593822,22.2036142 L15.593822,18.7186113 C15.593822,18.5416291 15.4503294,18.3981365 15.2733472,18.3981365 L11.7883442,18.3981365 C11.611362,18.3981365 11.4678694,18.5416291 11.4678694,18.7186113 L11.4678694,22.2036142 C11.4678694,22.3805964 11.611362,22.524089 11.7883442,22.524089 Z" id="Path"></path>
                            <path d="M17.3966528,22.524089 L20.8816558,22.524089 C21.058638,22.524089 21.2021306,22.3805964 21.2021306,22.2036142 L21.2021306,18.7186113 C21.2021306,18.5416291 21.058638,18.3981365 20.8816558,18.3981365 L17.3966528,18.3981365 C17.2196706,18.3981365 17.076178,18.5416291 17.076178,18.7186113 L17.076178,22.2036142 C17.076178,22.3805964 17.2196706,22.524089 17.3966528,22.524089 Z" id="Path"></path>
                        </g>
                    </g>
                </g>
            </g>
        </g>
    </g>
</svg>