<?xml version="1.0" encoding="UTF-8"?>
<svg width="32px" height="32px" viewBox="0 0 32 32" version="1.1" xmlns="http://www.w3.org/2000/svg" xmlns:xlink="http://www.w3.org/1999/xlink">
    <title>CEFC8E5C-1B86-4FDF-9C3C-395BB39E20E3</title>
    <g id="Page-1" stroke="none" stroke-width="1" fill="none" fill-rule="evenodd">
        <g id="AWZMC-Home" transform="translate(-1366.000000, -395.000000)" fill="#FFFFFF" fill-rule="nonzero">
            <g id="banner" transform="translate(0.000000, 50.000000)">
                <g id="icons-panel/green/light" transform="translate(1340.000000, 211.000000)">
                    <g id="ic/32/book-an-appointment/white" transform="translate(26.000000, 134.000000)">
                        <g id="ic/book-an-appointment" transform="translate(4.000000, 3.000000)">
                            <path d="M22.2113947,3.11715134 L20.2529377,3.11715134 L20.2529377,1.78041543 C20.2529377,0.797127596 19.4558101,1.42108547e-14 18.4725223,1.42108547e-14 L18.4013056,1.42108547e-14 C17.4180178,1.42108547e-14 16.6208902,0.797127596 16.6208902,1.78041543 L16.6208902,3.11715134 L7.43394659,3.11715134 L7.43394659,1.78041543 C7.43394659,0.797127596 6.63681899,1.42108547e-14 5.65353116,1.42108547e-14 L5.58231454,1.42108547e-14 C4.59902671,1.42108547e-14 3.80189911,0.797127596 3.80189911,1.78041543 L3.80189911,3.11715134 L1.84344214,3.11715134 C0.860154303,3.11715134 0.0630267062,3.91427893 0.0630267062,4.89756677 L0.0630267062,23.9836202 C0.0630267062,24.9670504 0.860154303,25.7640356 1.84344214,25.7640356 L22.2113947,25.7640356 C23.1946825,25.7640356 23.9918101,24.9670504 23.9918101,23.9836202 L23.9918101,4.89756677 C23.9918101,3.91427893 23.1946113,3.11715134 22.2113947,3.11715134 Z M21.0007122,22.9509792 L3.05412463,22.9509792 L3.05412463,8.49400593 L21.0007122,8.49400593 L21.0007122,22.9509792 Z" id="Shape"></path>
                            <path d="M5.49336499,15.0362493 L8.5911454,15.0362493 C8.74846291,15.0362493 8.87601187,14.9087003 8.87601187,14.7513828 L8.87601187,11.6536024 C8.87601187,11.4962849 8.74846291,11.3687359 8.5911454,11.3687359 L5.49336499,11.3687359 C5.33604748,11.3687359 5.20849852,11.4962849 5.20849852,11.6536024 L5.20849852,14.7513828 C5.20849852,14.9087003 5.33604748,15.0362493 5.49336499,15.0362493 Z" id="Path"></path>
                            <path d="M10.4785282,15.0362493 L13.5763086,15.0362493 C13.7336261,15.0362493 13.8611751,14.9087003 13.8611751,14.7513828 L13.8611751,11.6536024 C13.8611751,11.4962849 13.7336261,11.3687359 13.5763086,11.3687359 L10.4785282,11.3687359 C10.3212107,11.3687359 10.1936617,11.4962849 10.1936617,11.6536024 L10.1936617,14.7513828 C10.1936617,14.9087003 10.3212107,15.0362493 10.4785282,15.0362493 Z" id="Path"></path>
                            <path d="M15.4636914,15.0362493 L18.5614718,15.0362493 C18.7187893,15.0362493 18.8463383,14.9087003 18.8463383,14.7513828 L18.8463383,11.6536024 C18.8463383,11.4962849 18.7187893,11.3687359 18.5614718,11.3687359 L15.4636914,11.3687359 C15.3063739,11.3687359 15.1788249,11.4962849 15.1788249,11.6536024 L15.1788249,14.7513828 C15.1788249,14.9087003 15.3063739,15.0362493 15.4636914,15.0362493 Z" id="Path"></path>
                            <path d="M5.49336499,20.0214125 L8.5911454,20.0214125 C8.74846291,20.0214125 8.87601187,19.8938635 8.87601187,19.736546 L8.87601187,16.6387656 C8.87601187,16.4814481 8.74846291,16.3538991 8.5911454,16.3538991 L5.49336499,16.3538991 C5.33604748,16.3538991 5.20849852,16.4814481 5.20849852,16.6387656 L5.20849852,19.736546 C5.20849852,19.8938635 5.33604748,20.0214125 5.49336499,20.0214125 Z" id="Path"></path>
                            <path d="M10.4785282,20.0214125 L13.5763086,20.0214125 C13.7336261,20.0214125 13.8611751,19.8938635 13.8611751,19.736546 L13.8611751,16.6387656 C13.8611751,16.4814481 13.7336261,16.3538991 13.5763086,16.3538991 L10.4785282,16.3538991 C10.3212107,16.3538991 10.1936617,16.4814481 10.1936617,16.6387656 L10.1936617,19.736546 C10.1936617,19.8938635 10.3212107,20.0214125 10.4785282,20.0214125 Z" id="Path"></path>
                            <path d="M15.4636914,20.0214125 L18.5614718,20.0214125 C18.7187893,20.0214125 18.8463383,19.8938635 18.8463383,19.736546 L18.8463383,16.6387656 C18.8463383,16.4814481 18.7187893,16.3538991 18.5614718,16.3538991 L15.4636914,16.3538991 C15.3063739,16.3538991 15.1788249,16.4814481 15.1788249,16.6387656 L15.1788249,19.736546 C15.1788249,19.8938635 15.3063739,20.0214125 15.4636914,20.0214125 Z" id="Path"></path>
                        </g>
                    </g>
                </g>
            </g>
        </g>
    </g>
</svg>