<?xml version="1.0" encoding="UTF-8"?>
<svg width="36px" height="36px" viewBox="0 0 36 36" version="1.1" xmlns="http://www.w3.org/2000/svg" xmlns:xlink="http://www.w3.org/1999/xlink">
    <title>58F9D833-FC25-42E4-8625-5F0A6FC70B91</title>
    <g id="Page-1" stroke="none" stroke-width="1" fill="none" fill-rule="evenodd">
        <g id="AWZMC-Home" transform="translate(-158.000000, -2397.000000)" fill="#0D7F68" fill-rule="nonzero">
            <g id="Patient-Services" transform="translate(108.000000, 2196.000000)">
                <g id="1" transform="translate(3.000000, 154.000000)">
                    <g id="ic/36/Check-your-result-online/green" transform="translate(47.000000, 47.000000)">
                        <g id="ic/36/Check-your-result-online" transform="translate(2.000000, 5.000000)">
                            <polygon id="Path" points="5.50588235 3.67058824 25.6941176 3.67058824 25.6941176 18.3529412 29.3647059 18.3529412 29.3647059 0 1.83529412 0 1.83529412 18.3529412 5.50588235 18.3529412"></polygon>
                            <path d="M23.8588235,18.3529412 L23.8588235,5.50588235 L7.34117647,5.50588235 L7.34117647,18.3529412 L23.8588235,18.3529412 Z M16.5176471,7.34117647 L22.0235294,7.34117647 L22.0235294,9.17647059 L16.5176471,9.17647059 L16.5176471,7.34117647 Z M16.5176471,11.0117647 L22.0235294,11.0117647 L22.0235294,16.5176471 L16.5176471,16.5176471 L16.5176471,11.0117647 Z M9.17647059,7.34117647 L11.0117647,7.34117647 L11.0117647,9.17647059 L9.17647059,9.17647059 L9.17647059,7.34117647 Z M9.17647059,11.0117647 L14.6823529,11.0117647 L14.6823529,12.8470588 L9.17647059,12.8470588 L9.17647059,11.0117647 Z M9.17647059,14.6823529 L12.8470588,14.6823529 L12.8470588,16.5176471 L9.17647059,16.5176471 L9.17647059,14.6823529 Z" id="Shape"></path>
                            <path d="M0,20.1882353 L0,21.1058824 C0,23.6358353 2.05822118,25.6941176 4.58823529,25.6941176 L26.6117647,25.6941176 C29.1417176,25.6941176 31.2,23.6358353 31.2,21.1058824 L31.2,20.1882353 L0,20.1882353 Z" id="Path"></path>
                            <polygon id="Path" points="18.3529412 12.8470588 20.1882353 12.8470588 20.1882353 14.6823529 18.3529412 14.6823529"></polygon>
                        </g>
                    </g>
                </g>
            </g>
        </g>
    </g>
</svg>