<?xml version="1.0" encoding="UTF-8"?>
<svg width="32px" height="32px" viewBox="0 0 32 32" version="1.1" xmlns="http://www.w3.org/2000/svg" xmlns:xlink="http://www.w3.org/1999/xlink">
    <title>C69550CA-265D-488C-874B-DB3857C57E3D</title>
    <g id="Page-1" stroke="none" stroke-width="1" fill="none" fill-rule="evenodd">
        <g id="AWZMC-Home" transform="translate(-1366.000000, -277.000000)" fill="#FFFFFF" fill-rule="nonzero">
            <g id="banner" transform="translate(0.000000, 50.000000)">
                <g id="icons-panel/green/light" transform="translate(1340.000000, 211.000000)">
                    <g id="ic/32/find-a-doctor" transform="translate(26.000000, 16.000000)">
                        <g id="ic/find-a-doctor" transform="translate(2.000000, 0.000000)">
                            <path d="M13.5,0 C10.13275,0 7.394,2.7395 7.394,6.10675 L7.394,9.2705 C7.394,12.638 10.13275,15.3775 13.5,15.3775 C16.8675,15.3775 19.606,12.638 19.606,9.2705 L19.606,6.10675 C19.606,2.7395 16.8675,0 13.5,0 Z" id="Path"></path>
                            <path d="M26.966,23.33525 C25.01075,20.00325 21.8855,17.533 18.166,16.3795 C18.07975,16.35275 17.9865,16.3755 17.92225,16.439 C16.192,18.145 14.042,19.476 13.5045,19.7975 C12.93075,19.43075 10.514,17.8555 9.07725,16.439 C9.01325,16.3755 8.91925,16.35275 8.8335,16.3795 C5.1135,17.53325 1.9885,20.0035 0.034,23.3355 C-0.01075,23.41175 -0.01075,23.5065 0.034,23.58275 C2.8095,28.31225 7.96925,31.25025 13.49975,31.25025 C19.0305,31.25025 24.1905,28.31225 26.966,23.58275 C27.011,23.50625 27.011,23.4115 26.966,23.33525 Z M21.8045,25.15675 C21.8045,25.2915 21.67625,25.3945 21.54175,25.3945 L19.888,25.3945 C19.75325,25.3945 19.60625,25.51025 19.60625,25.64525 L19.60625,27.3555 C19.60625,27.49 19.53425,27.59275 19.3995,27.59275 L17.91425,27.59275 C17.7795,27.59275 17.6525,27.49 17.6525,27.3555 L17.6525,25.64525 C17.652,25.5105 17.56,25.3945 17.42525,25.3945 L15.70025,25.3945 C15.5655,25.3945 15.454,25.29125 15.454,25.15675 L15.454,23.68425 C15.454,23.5495 15.5655,23.44075 15.70025,23.44075 L17.42525,23.44075 C17.56,23.44075 17.652,23.33075 17.652,23.19575 L17.652,21.4835 C17.652,21.34875 17.779,21.2425 17.91375,21.2425 L19.383,21.2425 C19.5175,21.2425 19.606,21.34875 19.606,21.4835 L19.606,23.20075 C19.606,23.33575 19.7365,23.4405 19.8715,23.4405 L21.54175,23.4405 C21.67625,23.4405 21.8045,23.5545 21.8045,23.68925 L21.8045,25.15675 L21.8045,25.15675 Z" id="Shape"></path>
                        </g>
                    </g>
                </g>
            </g>
        </g>
    </g>
</svg>