<?xml version="1.0" encoding="UTF-8"?>
<svg width="20px" height="20px" viewBox="0 0 20 20" version="1.1" xmlns="http://www.w3.org/2000/svg" xmlns:xlink="http://www.w3.org/1999/xlink">
    <title>75EC0671-220F-48BB-AFB6-530FD7A039C0</title>
    <g id="Page-1" stroke="none" stroke-width="1" fill="none" fill-rule="evenodd">
        <g id="AWZMC-Home" transform="translate(-1019.000000, -2709.000000)" fill="#FFFFFF" fill-rule="nonzero">
            <g id="need-more-info" transform="translate(939.000000, 2510.000000)">
                <g id="button/border" transform="translate(49.000000, 189.000000)">
                    <g id="ic/20/phone-call" transform="translate(31.000000, 10.000000)">
                        <g transform="translate(2.000000, 2.000000)" id="Path">
                            <path d="M15.5804367,11.7423735 L13.3428909,9.50952826 C12.5437674,8.71208354 11.1852575,9.03109258 10.8656081,10.0677396 C10.625871,10.785471 9.82674751,11.1841933 9.10753635,11.0246732 C7.50928934,10.6259509 5.35165588,8.5525946 4.95209412,6.87796069 C4.71235707,6.16022929 5.19183118,5.36278458 5.91104233,5.12358231 C6.94990289,4.80460442 7.26955229,3.4489484 6.47042878,2.65150369 L4.23288297,0.418658477 C3.59358417,-0.139552826 2.63463596,-0.139552826 2.0752495,0.418658477 L0.556914844,1.93380344 C-0.961419816,3.52869288 0.716739545,7.75514988 4.47262002,11.5031401 C8.2285005,15.2511302 12.4638551,17.0055398 14.0621021,15.4106192 L15.5804367,13.8954742 C16.1398544,13.2575184 16.1398544,12.3005848 15.5804367,11.7423735 Z"></path>
                        </g>
                    </g>
                </g>
            </g>
        </g>
    </g>
</svg>