<svg xmlns="http://www.w3.org/2000/svg" width="32" height="32" viewBox="0 0 32 32">
  <path id="Path_1" data-name="Path 1" d="M29.714,44.571H19.429V34.286A2.286,2.286,0,0,0,17.143,32H14.857a2.286,2.286,0,0,0-2.286,2.286V44.571H2.286A2.286,2.286,0,0,0,0,46.857v2.286a2.286,2.286,0,0,0,2.286,2.286H12.571V61.714A2.286,2.286,0,0,0,14.857,64h2.286a2.286,2.286,0,0,0,2.286-2.286V51.429H29.714A2.286,2.286,0,0,0,32,49.143V46.857A2.286,2.286,0,0,0,29.714,44.571Z" transform="translate(0 -32)" fill="#fff"/>
</svg>
