<?xml version="1.0" encoding="UTF-8"?>
<svg width="30px" height="30px" viewBox="0 0 30 30" version="1.1" xmlns="http://www.w3.org/2000/svg" xmlns:xlink="http://www.w3.org/1999/xlink">
    <title>6BA746EC-C5D9-433B-954B-2A5F880E0B6A</title>
    <g id="Page-1" stroke="none" stroke-width="1" fill="none" fill-rule="evenodd">
        <g id="AWZMC-Home" transform="translate(-1224.000000, -3388.000000)" fill="#FFFFFF">
            <g id="Footer/green" transform="translate(0.000000, 2949.000000)">
                <g id="social-media-2-copy" transform="translate(992.000000, 439.000000)">
                    <g id="ic/30/Twitter" transform="translate(232.000000, 0.000000)">
                        <g transform="translate(3.000000, 4.000000)" id="Twitter">
                            <path d="M24.1281406,0.396266367 C23.1436701,1.01573303 22.05585,1.46625423 20.8931678,1.70731055 C19.966997,0.656552247 18.643328,0 17.1778846,0 C14.3688974,0 12.0892452,2.42292503 12.0892452,5.41106187 C12.0892452,5.83548582 12.13297,6.24686113 12.2204196,6.64312749 C7.98971377,6.41718012 4.23931828,4.26552929 1.72712967,0.987575451 C1.28855666,1.78972297 1.03813279,2.7202965 1.03813279,3.7113058 C1.03813279,5.5875618 1.93647872,7.24405136 3.30321002,8.21445756 C2.4697888,8.18836029 1.68340487,7.94249658 0.995732985,7.54004929 L0.995732985,7.60597922 C0.995732985,10.2287544 2.75068753,12.416804 5.08135196,12.9119653 C4.6547039,13.0390177 4.20420594,13.1028874 3.73979554,13.1028874 C3.41185953,13.1028874 3.09187348,13.0699224 2.78182489,13.0067395 C3.42974695,15.1556433 5.30858843,16.7207924 7.53656583,16.7626854 C5.79486123,18.2145175 3.59868368,19.0798478 1.21435699,19.0798478 C0.803608856,19.0798478 0.397498198,19.0551241 0,19.0056766 C2.25248979,20.5385476 4.92964015,21.4347826 7.80355212,21.4347826 C17.1679472,21.4347826 22.2870615,13.1907939 22.2870615,6.03945655 C22.2870615,5.80389439 22.2830865,5.56901901 22.274474,5.33826424 C23.268882,4.57526262 24.1327781,3.62271245 24.8125,2.53761564 C23.9009041,2.96753374 22.9190836,3.25872428 21.8895633,3.3892106 C22.940946,2.7202965 23.7478673,1.65992341 24.1281406,0.396266367"></path>
                        </g>
                    </g>
                </g>
            </g>
        </g>
    </g>
</svg>