<?xml version="1.0" encoding="UTF-8"?>
<svg width="30px" height="30px" viewBox="0 0 30 30" version="1.1" xmlns="http://www.w3.org/2000/svg" xmlns:xlink="http://www.w3.org/1999/xlink">
    <title>46883782-B238-4523-BF9E-0694174F2E0C</title>
    <g id="Page-1" stroke="none" stroke-width="1" fill="none" fill-rule="evenodd">
        <g id="AWZMC-Home" transform="translate(-992.000000, -3388.000000)" fill="#FFFFFF">
            <g id="Footer/green" transform="translate(0.000000, 2949.000000)">
                <g id="social-media-2-copy" transform="translate(992.000000, 439.000000)">
                    <g id="Fill-1" transform="translate(4.000000, 1.000000)">
                        <path d="M5.4136905,11.0696625 L7.0465515,11.0696625 L7.048338,5.1130625 L8.977758,0.0103675 L7.1918535,0.0103675 L6.16610475,3.80047417 L5.12576625,-4.08562073e-13 L3.35832225,-4.08562073e-13 L5.41101075,5.11589 L5.4136905,11.0696625 Z M10.2038925,8.982025 C10.2038925,9.42185833 10.514148,9.78095083 10.8919928,9.78095083 C11.2701353,9.78095083 11.5791998,9.42185833 11.5791998,8.982025 L11.5791998,4.84759167 C11.5791998,4.40838667 11.2701353,4.04929417 10.8919928,4.04929417 C10.514148,4.04929417 10.2038925,4.40838667 10.2038925,4.84759167 L10.2038925,8.982025 Z M8.84823675,5.89690833 C8.84823675,5.15139083 8.90719125,4.56924 9.024207,4.14951333 C9.142116,3.7313575 9.35381625,3.39519917 9.66049875,3.14166667 C9.966288,2.8868775 10.3578293,2.75932583 10.8339315,2.75932583 C11.2344053,2.75932583 11.5774133,2.84226583 11.8638488,3.00469 C12.1514753,3.16805667 12.3735968,3.38011917 12.5278313,3.64182 C12.6844478,3.90446333 12.79134,4.1743325 12.8482103,4.450485 C12.9062715,4.7304075 12.9348555,5.1526475 12.9348555,5.72223167 L12.9348555,7.68640167 C12.9348555,8.40678583 12.9071648,8.936785 12.8541653,9.2732575 C12.8014635,9.6106725 12.6883185,9.9235825 12.5129438,10.2170142 C12.3402488,10.5073042 12.117234,10.7243933 11.846877,10.8629408 C11.5735425,11.002745 11.260905,11.0712333 10.9077735,11.0712333 C10.5132548,11.0712333 10.1809658,11.0137408 9.90703575,10.8937292 C9.6322125,10.7743458 9.41991675,10.5943283 9.26865975,10.3552475 C9.115914,10.1158525 9.00842625,9.82430583 8.94351675,9.4843775 C8.8783095,9.14476333 8.8473435,8.63392833 8.8473435,7.95312917 L8.84823675,5.89690833 Z M14.0934008,10.2833033 C14.1731978,10.4887683 14.2976573,10.6552767 14.4667793,10.7809433 C14.6335193,10.904725 14.8467083,10.96693 15.1021778,10.96693 C15.3260858,10.96693 15.5243873,10.9031542 15.6970823,10.7715183 C15.8691818,10.6405108 16.014186,10.444785 16.1326905,10.1837125 L16.1032133,10.8264975 L17.834034,10.8264975 L17.834034,3.05998333 L16.47153,3.05998333 L16.47153,9.10455 C16.47153,9.43191167 16.2160605,9.69989583 15.9037208,9.69989583 C15.5931675,9.69989583 15.3368048,9.43191167 15.3368048,9.10455 L15.3368048,3.05998333 L13.9147508,3.05998333 L13.9147508,8.29839833 C13.9147508,8.96568833 13.926363,9.41054833 13.9451213,9.63612 C13.964475,9.86012083 14.013306,10.0750108 14.0934008,10.2833033 L14.0934008,10.2833033 Z M20.0653725,22.9216 L18.9014678,22.9285117 C18.9005745,22.9768933 18.8990858,23.0334433 18.8984903,23.0943917 L18.8984903,23.7802175 C18.8984903,24.14685 18.6111615,24.4456225 18.2621985,24.4456225 L18.034122,24.4456225 C17.6842658,24.4456225 17.3972348,24.14685 17.3972348,23.7802175 L17.3972348,23.703875 L17.3972348,22.949875 L17.3972348,21.9769008 L20.0632883,21.9769008 L20.0632883,20.9181592 C20.0632883,20.1443667 20.04453,19.3708883 19.983789,18.9285417 C19.7926335,17.5292433 17.9313983,17.3071275 16.9911038,18.0234275 C16.6960335,18.2471142 16.4706368,18.546515 16.3396268,18.9489625 C16.207128,19.3510958 16.141623,19.9008875 16.141623,20.59928 L16.141623,22.927255 C16.1422185,26.79716 20.597154,26.2501958 20.0653725,22.9216 L20.0653725,22.9216 Z M15.2060966,23.4393467 L15.2025195,19.5348833 C15.2016263,18.04699 14.146698,17.1563275 12.7148183,18.3602142 L12.721071,15.4573142 L11.1700913,15.4598275 L11.1626475,25.4786025 L12.4382085,25.4591242 L12.554331,24.8351892 C14.1839168,26.41262 15.2084745,25.3315725 15.2060966,23.4393467 L15.2060966,23.4393467 Z M10.2387293,18.0674108 L8.685963,18.0674108 L8.685963,22.7585475 C8.685963,23.4368333 8.72496825,23.7761333 8.683581,23.8958308 C8.557335,24.2596358 7.9898235,24.6460608 7.76859525,23.9351017 C7.73107875,23.8106917 7.764129,23.4352625 7.7635335,22.7905925 L7.75728075,18.0674108 L6.21314925,18.0674108 L6.21791325,22.7164492 C6.21910425,23.4289792 6.202728,23.960235 6.22327275,24.2021433 C6.261087,24.6284675 6.24768825,25.1254792 6.6225555,25.4094858 C7.321077,25.9404275 8.66005875,25.3303158 8.9950275,24.5712892 L8.99205,25.539865 L10.239027,25.5414358 L10.2387293,18.0674108 Z M4.65591675,25.5433208 L4.65472575,16.7589067 L6.517152,16.759535 L6.517152,15.4579425 L1.5524685,15.4500883 L1.5524685,16.7296892 L3.10225725,16.7344017 L3.10225725,25.5433208 L4.65591675,25.5433208 Z M22.33125,16.2986525 L22.33125,24.6378925 C22.33125,26.6381917 20.6870745,28.275 18.6778575,28.275 L3.65369025,28.275 C1.64358,28.275 9.05941988e-14,26.6381917 9.05941988e-14,24.6378925 L9.05941988e-14,16.2986525 C9.05941988e-14,14.2983533 1.64358,12.6612308 3.65369025,12.6612308 L18.6778575,12.6612308 C20.6870745,12.6612308 22.33125,14.2983533 22.33125,16.2986525 L22.33125,16.2986525 Z M13.3728458,18.7507233 C12.999765,18.7507233 12.6945713,19.0155658 12.6945713,19.3391575 L12.6945713,23.722725 C12.6945713,24.0460025 12.999765,24.3099025 13.3728458,24.3099025 C13.7474153,24.3099025 14.0529068,24.0460025 14.0529068,23.722725 L14.0529068,19.3391575 C14.0529068,19.0152517 13.7474153,18.7507233 13.3728458,18.7507233 L13.3728458,18.7507233 Z M18.8889623,20.68222 L17.418375,20.68222 L17.4252233,19.7808758 C17.4252233,19.3806275 17.7369675,19.0526375 18.1177898,19.0526375 L18.211581,19.0526375 C18.5932965,19.0526375 18.905934,19.3806275 18.905934,19.7808758 L18.8889623,20.68222 Z"></path>
                    </g>
                </g>
            </g>
        </g>
    </g>
</svg>